<svg xmlns="http://www.w3.org/2000/svg" width="72" height="72" viewBox="0 0 72 72">
  <g id="all_unchecked" transform="translate(-773 -629)">
    <g id="타원_532" data-name="타원 532" transform="translate(773 629)" fill="#fff" stroke="#e8e8e8" stroke-width="2">
      <circle cx="36" cy="36" r="36" stroke="none"/>
      <circle cx="36" cy="36" r="35" fill="none"/>
    </g>
    <g id="pGZ35e" transform="translate(791.817 645.518)" opacity="0.15">
      <g id="그룹_2360" data-name="그룹 2360" transform="translate(0 0)">
        <path id="패스_4215" data-name="패스 4215" d="M177.722,580.423c0-.282,0-.5,0-.718q0-2.33-.006-4.659c0-.664-.333-.848-.917-.51-1.756,1.018-3.507,2.043-5.27,3.048a.752.752,0,0,0-.421.749c.015,1.874.01,3.749.017,5.624a.415.415,0,0,1-.217.435c-1.367.759-2.726,1.531-4.089,2.3a1.924,1.924,0,0,1-.2.077c0-.155,0-.273,0-.39q-.011-8.686-.015-17.371a.5.5,0,0,1,.172-.379c1.394-.824,2.8-1.629,4.2-2.439a1.673,1.673,0,0,1,.176-.068c0,.15,0,.265,0,.38q0,2.5.008,4.992c0,.619.347.822.877.515,1.727-1,3.451-2.006,5.183-3a.706.706,0,0,0,.39-.7c-.013-1.875-.01-3.749-.014-5.624,0-.179-.005-.331.2-.445,1.378-.784,2.748-1.583,4.121-2.376.055-.032.117-.051.214-.093.01.136.024.24.024.344q.012,8.686.027,17.371a.492.492,0,0,1-.277.5c-1.306.754-2.6,1.525-3.9,2.29C177.934,580.315,177.865,580.348,177.722,580.423Z" transform="translate(-149.063 -548.925)" fill="#fff" stroke="#000" stroke-miterlimit="10" stroke-width="1"/>
        <path id="패스_4216" data-name="패스 4216" d="M95.1,580.653l-1.726-1.008c-.823-.482-1.644-.967-2.472-1.442a.422.422,0,0,1-.252-.414q0-8.753-.019-17.505c0-.075.011-.15.02-.273.122.059.22.1.31.15,1.3.758,2.6,1.524,3.914,2.27a.545.545,0,0,1,.305.554c-.007,1.841.005,3.683,0,5.524a.728.728,0,0,0,.411.721c1.726.98,3.442,1.978,5.162,2.969.557.321.89.126.889-.523q0-2.479-.006-4.959c0-.118,0-.235,0-.433.41.236.75.433,1.091.628,1.068.612,2.135,1.227,3.207,1.831a.473.473,0,0,1,.274.472q0,8.719.018,17.438c0,.086-.011.172-.021.317l-1.616-.9c-.872-.486-1.739-.979-2.617-1.454a.462.462,0,0,1-.265-.476c.005-1.886-.006-3.772,0-5.657a.682.682,0,0,0-.374-.675c-1.783-1.015-3.557-2.044-5.337-3.065-.584-.335-.9-.143-.9.532q0,2.5.006,4.992Z" transform="translate(-89.642 -549.111)" fill="#fff" stroke="#000" stroke-miterlimit="10" stroke-width="1"/>
        <path id="패스_4217" data-name="패스 4217" d="M124.123,523.932c-.93.539-1.8,1.046-2.673,1.55q-6.238,3.6-12.472,7.214a.657.657,0,0,1-.774-.007c-1.27-.751-2.556-1.474-3.835-2.208-.084-.048-.164-.1-.3-.185l1.814-1.049c.932-.538,1.866-1.072,2.8-1.612.526-.305.54-.7.021-1-1.757-1.015-3.523-2.017-5.279-3.033a.686.686,0,0,0-.774.014q-2.413,1.443-4.84,2.864a.49.49,0,0,1-.411.023c-1.407-.8-2.8-1.62-4.2-2.436a1.043,1.043,0,0,1-.113-.1c.109-.07.2-.135.3-.191q5.707-3.291,11.416-6.58c1.192-.687,2.384-1.372,3.583-2.045a.5.5,0,0,1,.412-.038c1.364.765,2.718,1.548,4.073,2.328.056.032.106.076.2.143-.188.119-.349.228-.517.325q-2.045,1.183-4.092,2.364c-.5.288-.5.692.006.983,1.748,1.01,3.5,2.009,5.249,3.021a.723.723,0,0,0,.807,0c1.59-.928,3.189-1.841,4.778-2.772a.544.544,0,0,1,.634,0c1.282.751,2.575,1.485,3.864,2.226C123.881,523.777,123.971,523.837,124.123,523.932Z" transform="translate(-91.552 -513.966)" fill="#fff" stroke="#000" stroke-miterlimit="10" stroke-width="1"/>
        <path id="패스_4218" data-name="패스 4218" d="M120.135,520.077a.686.686,0,0,0-.4-.662q-2.6-1.477-5.194-2.982a.731.731,0,0,0-.831,0c-1.224.72-2.457,1.424-3.687,2.132-.284.163-.57.322-.916.517,0-.183,0-.3,0-.418,0-1.62-.011-3.24,0-4.859a.767.767,0,0,0-.422-.755q-2.589-1.471-5.164-2.967a.7.7,0,0,0-.776.005c-1.054.615-2.115,1.216-3.172,1.825q-6.545,3.772-13.091,7.54a.735.735,0,0,0-.41.723q.019,4.959.018,9.919.006,4.443.006,8.887a.725.725,0,0,0,.379.712q2.578,1.491,5.144,3a.722.722,0,0,0,.807,0c1.085-.628,2.18-1.237,3.272-1.853.469-.265.939-.526,1.465-.821,0,.192,0,.312,0,.432,0,1.642.005,3.284-.009,4.926a.752.752,0,0,0,.423.751q2.591,1.435,5.166,2.9a.739.739,0,0,0,.809,0q2.588-1.474,5.187-2.928a.682.682,0,0,0,.383-.673c-.016-1.353-.016-2.707-.021-4.06,0-.43,0-.859,0-1.349.154.08.259.131.361.188,1.461.819,2.924,1.633,4.379,2.464a.746.746,0,0,0,.836-.007q2.562-1.518,5.135-3.018a.646.646,0,0,0,.351-.622Q120.14,529.547,120.135,520.077Zm-17.5,27.752-1.616-.9c-.872-.486-1.739-.979-2.617-1.454a.462.462,0,0,1-.265-.476c.005-1.886-.006-3.772,0-5.658a.682.682,0,0,0-.374-.674c-1.783-1.015-3.557-2.044-5.337-3.065-.584-.335-.9-.144-.9.531q0,2.5.006,4.992c0,.1,0,.2,0,.385L89.808,540.5c-.823-.482-1.644-.967-2.472-1.442a.422.422,0,0,1-.252-.414q0-8.753-.019-17.505c0-.075.011-.15.02-.273.122.059.22.1.31.15,1.3.758,2.6,1.524,3.914,2.27a.545.545,0,0,1,.305.555c-.007,1.841.005,3.683,0,5.524a.728.728,0,0,0,.411.721c1.726.98,3.442,1.978,5.162,2.969.557.321.89.125.889-.523q0-2.479-.006-4.959c0-.118,0-.235,0-.433.41.236.75.433,1.091.628,1.068.612,2.135,1.227,3.207,1.831a.473.473,0,0,1,.274.471q0,8.719.018,17.438C102.658,547.6,102.647,547.684,102.637,547.829Zm.86-19.131a.657.657,0,0,1-.774-.007c-1.27-.751-2.556-1.474-3.835-2.208-.084-.048-.164-.1-.3-.185l1.814-1.049c.932-.538,1.866-1.072,2.8-1.612.526-.305.54-.7.021-1-1.757-1.015-3.523-2.017-5.279-3.034a.686.686,0,0,0-.774.014q-2.413,1.443-4.84,2.863a.489.489,0,0,1-.411.023c-1.407-.8-2.8-1.621-4.2-2.436a1.093,1.093,0,0,1-.113-.1c.109-.07.2-.135.3-.191q5.707-3.291,11.416-6.58c1.192-.686,2.384-1.372,3.583-2.045a.5.5,0,0,1,.412-.038c1.364.765,2.718,1.548,4.073,2.328.056.032.106.077.2.143-.188.119-.349.228-.517.325q-2.045,1.183-4.092,2.364c-.5.288-.5.692.006.983,1.748,1.01,3.5,2.009,5.249,3.022a.722.722,0,0,0,.807,0c1.59-.928,3.189-1.841,4.778-2.772a.544.544,0,0,1,.634,0c1.282.751,2.575,1.485,3.864,2.226.094.054.184.115.336.209-.93.54-1.8,1.046-2.673,1.55Q109.732,525.087,103.5,528.7Zm15.413,10.331c-1.306.754-2.6,1.525-3.9,2.29-.066.039-.135.071-.278.147,0-.282,0-.5,0-.718q0-2.33-.006-4.659c0-.664-.333-.848-.917-.51-1.756,1.018-3.507,2.043-5.27,3.048a.752.752,0,0,0-.421.749c.015,1.874.01,3.749.017,5.624a.416.416,0,0,1-.217.435c-1.367.759-2.726,1.531-4.089,2.3a1.883,1.883,0,0,1-.2.077c0-.156,0-.273,0-.39q-.011-8.685-.015-17.371a.5.5,0,0,1,.172-.379c1.394-.824,2.8-1.63,4.2-2.439a1.653,1.653,0,0,1,.176-.068c0,.15,0,.265,0,.38q0,2.5.008,4.992c0,.619.347.822.877.515,1.727-1,3.451-2.006,5.183-3a.705.705,0,0,0,.39-.7c-.013-1.875-.01-3.749-.014-5.624,0-.179-.005-.332.2-.445,1.378-.784,2.748-1.583,4.121-2.375a2.284,2.284,0,0,1,.214-.094c.01.136.024.24.024.344q.012,8.686.027,17.371A.492.492,0,0,1,118.911,539.029Z" transform="translate(-86.071 -509.967)"/>
      </g>
    </g>
  </g>
</svg>
