<svg xmlns="http://www.w3.org/2000/svg" width="29.674" height="27.831" viewBox="0 0 29.674 27.831">
  <g id="arts" transform="translate(1 1)">
    <path id="패스_4211" data-name="패스 4211" d="M393.918,297.725l-3.6-3.734,17.064-14.549,1.668,1.8Z" transform="translate(-381.377 -279.442)" fill="#e8e8e8" stroke="#000" stroke-linejoin="round" stroke-width="2"/>
    <path id="패스_4212" data-name="패스 4212" d="M353.267,350.857c.169-.065.256-.1.342-.133a3.837,3.837,0,0,0,2.583-3.308,8.392,8.392,0,0,1,6.071-7.279.43.43,0,0,1,.487.122c.934.941,1.88,1.869,2.809,2.815a.538.538,0,0,1,.131.42,9.671,9.671,0,0,1-8.137,7.715,10.317,10.317,0,0,1-3.881-.225C353.563,350.956,353.456,350.916,353.267,350.857Z" transform="translate(-353.267 -325.468)" fill="#e8e8e8" stroke="#000" stroke-linejoin="round" stroke-width="2"/>
  </g>
</svg>
