<svg xmlns="http://www.w3.org/2000/svg" width="48.143" height="42.163" viewBox="0 0 48.143 42.163">
  <g id="comment" transform="translate(0 -23.2)">
    <g id="그룹_2822" data-name="그룹 2822" transform="translate(0 23.2)">
      <g id="그룹_2821" data-name="그룹 2821" transform="translate(0 0)">
        <path id="패스_5288" data-name="패스 5288" d="M42.215,28.921A7.718,7.718,0,0,0,34.844,23.2H7.629A7.644,7.644,0,0,0,0,30.829V43.457a7.667,7.667,0,0,0,5.928,7.422A7.581,7.581,0,0,0,13.3,56.6h1.134v7.629a1.237,1.237,0,0,0,.619,1.031,1.525,1.525,0,0,0,.515.1,1.086,1.086,0,0,0,.67-.258l11.031-8.5H40.514a7.644,7.644,0,0,0,7.629-7.629V36.344A7.623,7.623,0,0,0,42.215,28.921ZM5.67,36.344V48.457a5.339,5.339,0,0,1-3.4-5V30.829a5.39,5.39,0,0,1,5.361-5.361H34.9a5.375,5.375,0,0,1,4.9,3.247H13.3A7.644,7.644,0,0,0,5.67,36.344ZM45.926,48.972h-.052a5.39,5.39,0,0,1-5.361,5.361H26.906a.98.98,0,0,0-.67.258L16.7,61.961V55.467a1.144,1.144,0,0,0-1.134-1.134H13.3a5.39,5.39,0,0,1-5.361-5.361V36.344A5.39,5.39,0,0,1,13.3,30.983H40.566a5.39,5.39,0,0,1,5.361,5.361V48.972Z" transform="translate(0 -23.2)"/>
        <path id="패스_5289" data-name="패스 5289" d="M134.329,122.4h-23.2a1.134,1.134,0,1,0,0,2.268h23.2a1.134,1.134,0,0,0,0-2.268Z" transform="translate(-95.825 -109.617)"/>
        <path id="패스_5290" data-name="패스 5290" d="M134.329,160.8h-23.2a1.134,1.134,0,1,0,0,2.268h23.2a1.134,1.134,0,0,0,0-2.268Z" transform="translate(-95.825 -143.069)"/>
        <path id="패스_5291" data-name="패스 5291" d="M134.329,199.6h-23.2a1.134,1.134,0,1,0,0,2.268h23.2a1.144,1.144,0,0,0,1.134-1.134A1.111,1.111,0,0,0,134.329,199.6Z" transform="translate(-95.825 -176.869)"/>
      </g>
    </g>
  </g>
</svg>
