<svg xmlns="http://www.w3.org/2000/svg" width="45" height="45" viewBox="0 0 45 45">
  <g id="그룹_2835" data-name="그룹 2835" transform="translate(-1154 -249)">
    <g id="man_icon" transform="translate(921 -702.94)">
      <g id="그룹_2782" data-name="그룹 2782" transform="translate(233 951.941)">
        <ellipse id="타원_621" data-name="타원 621" cx="22.5" cy="22.439" rx="22.5" ry="22.439" transform="translate(0 0)" fill="#5ebefe"/>
        <path id="패스_5269" data-name="패스 5269" d="M148.722,138.523c-.374-.438-.374-3.619-.374-3.619a5.84,5.84,0,0,0,1.275-1.777,19.69,19.69,0,0,0,.618-3.49.67.67,0,0,0,.193.026c.27,0,.76-.18.992-1.365.283-1.455.824-2.215.683-3.284-.1-.721-.412-.837-.592-.837a.456.456,0,0,0-.155.026s.734-1.082.734-4.766c0-3.787-2.924-7.522-8.32-7.535-5.41.013-8.32,3.748-8.32,7.535,0,3.671.734,4.766.734,4.766a.456.456,0,0,0-.155-.026c-.193,0-.5.116-.592.837-.142,1.069.386,1.842.683,3.284.232,1.185.721,1.365.992,1.365a.67.67,0,0,0,.193-.026,19.5,19.5,0,0,0,.618,3.49A5.84,5.84,0,0,0,139.2,134.9s0,3.181-.374,3.619a7.031,7.031,0,0,1-2.228,1.03,56.73,56.73,0,0,0-7.546,3.209c-1.955,1.217-.23,1.572-.275,1.661-.348.688,4.4,3.209,6.661,4.087a27.406,27.406,0,0,0,9.706,1.5c7.046-.288,8.907-2.157,8.907-2.157a35.547,35.547,0,0,0,4.924-3.71c.525-.485-.893-1.382-.893-1.382S149.082,138.973,148.722,138.523Z" transform="translate(-121.209 -105.025)" fill="#fff"/>
      </g>
    </g>
  </g>
</svg>
