<svg xmlns="http://www.w3.org/2000/svg" width="58" height="58" viewBox="0 0 58 58">
  <g id="man_icon" transform="translate(-233 -951.749)">
    <g id="그룹_2782" data-name="그룹 2782" transform="translate(233 951.749)">
      <ellipse id="타원_621" data-name="타원 621" cx="29" cy="28.939" rx="29" ry="28.939" transform="translate(0 0)" fill="#5ebefe"/>
      <path id="패스_5269" data-name="패스 5269" d="M154.569,146.08c-.48-.562-.48-4.647-.48-4.647a7.5,7.5,0,0,0,1.637-2.282,25.28,25.28,0,0,0,.794-4.481.86.86,0,0,0,.248.033c.347,0,.976-.232,1.273-1.753.364-1.869,1.058-2.844.876-4.217-.132-.926-.529-1.075-.761-1.075a.586.586,0,0,0-.2.033s.943-1.389.943-6.118c0-4.862-3.754-9.657-10.682-9.674-6.945.017-10.682,4.812-10.682,9.674,0,4.713.943,6.118.943,6.118a.586.586,0,0,0-.2-.033c-.248,0-.645.149-.761,1.075-.182,1.372.5,2.365.876,4.217.3,1.521.926,1.753,1.273,1.753a.86.86,0,0,0,.248-.033,25.035,25.035,0,0,0,.794,4.481,7.5,7.5,0,0,0,1.637,2.282s0,4.084-.48,4.647-1.935.959-2.861,1.323c-1.323.513-7.178,2.557-9.687,4.12s-.295,2.018-.352,2.132c-.447.884,5.651,4.121,8.552,5.247a35.186,35.186,0,0,0,12.461,1.926c9.046-.37,11.436-2.769,11.436-2.769a45.638,45.638,0,0,0,6.322-4.763c.674-.623-1.147-1.774-1.147-1.774S155.032,146.659,154.569,146.08Z" transform="translate(-119.247 -102.848)" fill="#fff"/>
    </g>
  </g>
</svg>
