<svg xmlns="http://www.w3.org/2000/svg" width="50" height="35" viewBox="0 0 50 35">
  <g id="그룹_2815" data-name="그룹 2815" transform="translate(-440 -615.848)">
    <g id="book" transform="translate(440 615.848)">
      <g id="그룹_2796" data-name="그룹 2796" transform="translate(0 0)">
        <path id="패스_5272" data-name="패스 5272" d="M49.031,61.216h-3.3v-1.1a.948.948,0,0,0-.7-.946,27.943,27.943,0,0,0-6.988-.87c-3.877,0-9.159.851-13.065,4.728-3.877-3.915-9.2-4.728-13.065-4.728a27.943,27.943,0,0,0-6.988.87.948.948,0,0,0-.7.946v1.087H.969A.958.958,0,0,0,0,62.152v30.2a.958.958,0,0,0,.969.946.987.987,0,0,0,.475-.123c.1-.047,9.789-5.22,23.318-1.891H25a1,1,0,0,0,.233,0c13.569-3.357,23.26,1.806,23.318,1.891a.99.99,0,0,0,.969,0A.942.942,0,0,0,50,92.363v-30.2A.958.958,0,0,0,49.031,61.216ZM1.938,90.85V63.107H4.255V86.822a.957.957,0,0,0,.958.956.988.988,0,0,0,.156-.011,43.447,43.447,0,0,1,6.057-.473,25.718,25.718,0,0,1,8.277,1.22A36.444,36.444,0,0,0,1.938,90.85Zm9.488-5.437a43.689,43.689,0,0,0-5.272.331V60.866a27.37,27.37,0,0,1,5.747-.624c3.625,0,8.626.813,12.1,4.633l.029,23.555C22.01,87.144,18.075,85.413,11.427,85.413ZM25.964,64.875c3.47-3.782,8.471-4.633,12.1-4.633a27.49,27.49,0,0,1,5.747.624V85.744a43.677,43.677,0,0,0-5.243-.34c-6.61,0-10.554,1.73-12.6,3.016ZM48.052,90.85a36.452,36.452,0,0,0-17.8-2.336,25.779,25.779,0,0,1,8.316-1.22,43.436,43.436,0,0,1,6.1.463.966.966,0,0,0,1.1-.793.919.919,0,0,0,.011-.153V63.107h2.316Z" transform="translate(0 -58.303)"/>
      </g>
    </g>
    <g id="패스_5273" data-name="패스 5273" transform="translate(441.316 619.995)">
      <path d="M 0.5000041723251343 28.260009765625 L 0.5000041723251343 0.4999959170818329 L 3.447364091873169 0.4999959170818329 L 3.447364091873169 27.17238616943359 L 3.447364091873169 27.68542098999023 L 0.5000041723251343 28.260009765625 Z" stroke="none"/>
      <path d="M 1.000004291534424 0.9999961853027344 L 1.000004291534424 27.65312194824219 L 2.947364330291748 27.27348327636719 L 2.947364330291748 27.17238616943359 L 2.947364330291748 0.9999961853027344 L 1.000004291534424 0.9999961853027344 M 4.291534423828125e-06 -3.814697265625e-06 L 3.947364091873169 -3.814697265625e-06 L 3.947364091873169 27.17238616943359 L 3.947364091873169 28.09735679626465 L 4.291534423828125e-06 28.86689567565918 L 4.291534423828125e-06 -3.814697265625e-06 Z" stroke="none"/>
    </g>
    <g id="패스_5274" data-name="패스 5274" transform="translate(443.947 644.122)">
      <path d="M 1.348424434661865 3.341484069824219 L 0.4999967813491821 2.43421483039856 L 0.4999967813491821 0.4999958872795105 L 15.28947639465332 0.4999958872795105 L 15.28947639465332 2.171770095825195 L 1.348424434661865 3.341484069824219 Z" stroke="none"/>
      <path d="M 0.9999971389770508 0.9999959468841553 L 0.9999971389770508 2.23685359954834 L 1.548103332519531 2.822973012924194 L 14.78947639465332 1.711964845657349 L 14.78947639465332 0.9999959468841553 L 0.9999971389770508 0.9999959468841553 M -2.86102294921875e-06 -4.053115844726562e-06 L 15.78947639465332 -4.053115844726562e-06 L 15.78947639465332 2.631576061248779 L 1.148746490478516 3.85999584197998 L -2.86102294921875e-06 2.631576061248779 L -2.86102294921875e-06 -4.053115844726562e-06 Z" stroke="none"/>
    </g>
    <path id="패스_5275" data-name="패스 5275" d="M0,0H3.947l-.1,28.881L0,28.1Z" transform="translate(484.737 619.995)"/>
    <path id="패스_5276" data-name="패스 5276" d="M0,0H15.789V3.634L0,2.632Z" transform="translate(470.263 644.122)"/>
  </g>
</svg>
