<svg xmlns="http://www.w3.org/2000/svg" width="16.018" height="17.764" viewBox="0 0 16.018 17.764">
  <g id="그룹_2836" data-name="그룹 2836" transform="translate(0.509 0.53)">
    <path id="합치기_11" data-name="합치기 11" d="M3.817,13.821c-.887-.52-1.05-2.142-.573-4.194C1.3,9.091.014,8.168,0,7.1S1.244,5.078,3.176,4.485C2.646,2.448,2.767.822,3.641.277S5.935.394,7.39,1.853C8.807.353,10.211-.35,11.1.17s1.05,2.142.573,4.193c1.947.537,3.23,1.46,3.244,2.525s-1.244,2.025-3.176,2.617c.53,2.037.409,3.663-.464,4.208S8.98,13.6,7.525,12.138a4.924,4.924,0,0,1-3.049,1.853A1.28,1.28,0,0,1,3.817,13.821Z" transform="translate(0.043 1.357)" fill="#e8e8e8"/>
    <g id="그룹_2340" data-name="그룹 2340" transform="translate(0 0)">
      <path id="패스_5298" data-name="패스 5298" d="M7.46,0c4.12,0,7.459,1.4,7.458,3.123s-3.342,3.13-7.462,3.133S0,4.856,0,3.128,3.34,0,7.46,0Z" transform="matrix(1, -0.014, 0.014, 1, 0, 5.331)" fill="none" stroke="#000" stroke-width="1"/>
      <path id="패스_5299" data-name="패스 5299" d="M7.717-.184c4.262-.1,7.684,1.157,7.643,2.812S11.832,5.706,7.57,5.808-.115,4.651-.074,3,3.455-.083,7.717-.184Z" transform="matrix(0.488, -0.873, 0.873, 0.488, 1.315, 13.651)" fill="none" stroke="#000" stroke-width="1"/>
      <path id="패스_5300" data-name="패스 5300" d="M3-.075C4.662-.116,5.923,3.3,5.82,7.56S4.289,15.3,2.631,15.344-.289,11.967-.186,7.709,1.345-.033,3-.075Z" transform="translate(1.173 3.235) rotate(-30.783)" fill="none" stroke="#000" stroke-width="1"/>
    </g>
  </g>
</svg>
