<svg id="그룹_2790" data-name="그룹 2790" xmlns="http://www.w3.org/2000/svg" width="18" height="18" viewBox="0 0 18 18">
  <path id="패스_4206" data-name="패스 4206" d="M574.421,4974.466h.315c1.43,0,2.86,0,4.29,0a1.622,1.622,0,0,1,1.558.963,1.648,1.648,0,0,1-.663,2.077c-.093.05-.188.1-.292.149a1.506,1.506,0,0,1,.911,1.839,1.282,1.282,0,0,1-.99,1.071,1.373,1.373,0,0,1,.7,1.314,1.31,1.31,0,0,1-.8,1.253c.1.069.191.122.271.19a1.112,1.112,0,0,1,.315,1.27,1.075,1.075,0,0,1-1.041.727c-3.289,0-6.578,0-9.867.005a.651.651,0,0,1-.713-.715c0-2.4-.006-4.807.009-7.21a5.385,5.385,0,0,1,.17-1.105,8.811,8.811,0,0,1,.694-1.984,6.906,6.906,0,0,1,1.077-1.612c.536-.591,1.086-1.172,1.6-1.78a1.708,1.708,0,0,0,.3-.646,6.773,6.773,0,0,0,.231-1.888,1.1,1.1,0,0,1,.889-1.03,1.569,1.569,0,0,1,1.748.887,4.3,4.3,0,0,1,.4,2.192,9.443,9.443,0,0,1-.436,2.4,8.558,8.558,0,0,1-.628,1.512C574.459,4974.374,574.445,4974.41,574.421,4974.466Z" transform="translate(-562.728 -4967.325)" fill="#80cbfd"/>
  <path id="패스_4207" data-name="패스 4207" d="M454.907,5149.319c0,1.443-.009,2.885.005,4.329a.644.644,0,0,1-.7.7c-1.217,0-2.435,0-3.652,0a.611.611,0,0,1-.663-.664q0-3.041,0-6.083c0-.88,0-1.761,0-2.642a.6.6,0,0,1,.316-.585.628.628,0,0,1,.277-.074q1.912-.007,3.825,0a.576.576,0,0,1,.592.624q0,2.2,0,4.4Z" transform="translate(-449.897 -5136.39)" fill="#80cbfd"/>
</svg>
