<svg xmlns="http://www.w3.org/2000/svg" width="23.75" height="23.752" viewBox="0 0 23.75 23.752">
  <g id="edit" transform="translate(-487 -327)">
    <g id="그룹_1330" data-name="그룹 1330" transform="translate(487 327)">
      <path id="패스_680" data-name="패스 680" d="M977.395,4958.4a3.156,3.156,0,0,1-1.018,2.356q-7.342,7.368-14.711,14.709a1.228,1.228,0,0,1-.667.318c-1.516.19-3.034.358-4.554.516a2.4,2.4,0,0,1-2.771-2.882c.182-1.43.3-2.868.495-4.3a1.648,1.648,0,0,1,.407-.894q7.311-7.354,14.655-14.673a3.307,3.307,0,0,1,4.705-.011q1.2,1.175,2.374,2.377A3.336,3.336,0,0,1,977.395,4958.4ZM956.4,4973.555c1.117-.119,2.1-.186,3.077-.346a2.153,2.153,0,0,0,1.108-.522q4.894-4.833,9.741-9.714c.146-.146.278-.307.307-.339l-3.325-3.315c-3.38,3.38-6.836,6.834-10.286,10.293a.724.724,0,0,0-.209.383C956.671,4971.142,956.545,4972.291,956.4,4973.555Zm16.413-13c.534-.557,1.1-1.141,1.66-1.735a.6.6,0,0,0-.02-.916c-.787-.8-1.559-1.61-2.388-2.36a.885.885,0,0,0-.843-.09c-.656.535-1.237,1.162-1.8,1.71Z" transform="translate(-953.646 -4952.565)" fill="#6d6d6d"/>
    </g>
  </g>
</svg>
