<svg xmlns="http://www.w3.org/2000/svg" width="32.409" height="32.409" viewBox="0 0 32.409 32.409">
  <path id="engineering" d="M75.166,289.862v-5.551h-3.95a11.529,11.529,0,0,0-1.333-3.221l2.792-2.792-3.925-3.925-2.792,2.792a11.521,11.521,0,0,0-3.221-1.333v-3.95H57.186v3.95a11.523,11.523,0,0,0-3.221,1.333l-2.792-2.792L47.248,278.3l2.792,2.792a11.522,11.522,0,0,0-1.333,3.221h-3.95v5.551h3.95a11.519,11.519,0,0,0,1.333,3.221l-2.792,2.792,3.925,3.925,2.792-2.792a11.522,11.522,0,0,0,3.221,1.333v3.95h5.551v-3.95a11.528,11.528,0,0,0,3.221-1.333L68.75,299.8l3.925-3.925-2.792-2.792a11.527,11.527,0,0,0,1.333-3.221Zm-15.2,3.741a6.516,6.516,0,1,1,6.516-6.516A6.516,6.516,0,0,1,59.961,293.6Z" transform="translate(-43.757 -270.882)" fill="#e8e8e8" stroke="#000" stroke-linejoin="round" stroke-width="2"/>
</svg>
