<svg xmlns="http://www.w3.org/2000/svg" width="31.916" height="15.528" viewBox="0 0 31.916 15.528">
  <g id="go" transform="translate(-1164.193 -510.903)">
    <g id="그룹_2562" data-name="그룹 2562" transform="translate(1164.193 510.903)">
      <path id="패스_4338" data-name="패스 4338" d="M2156.295,2217.576v-.491c0-5.706,4-7.518,8.573-7.518a12.715,12.715,0,0,1,4.963.828v3.087a13.223,13.223,0,0,0-4.324-.693c-3.513,0-4.447,1.656-4.447,4.184v.671c0,2.8.663,4.43,3.538,4.43a6.072,6.072,0,0,0,1.768-.246v-2.349h-2.359v-2.752h6.658v7.384a18.407,18.407,0,0,1-5.921.962C2159.513,2225.072,2156.295,2223.1,2156.295,2217.576Z" transform="translate(-2156.295 -2209.567)" fill="#fff"/>
      <path id="패스_4339" data-name="패스 4339" d="M2260.567,2217.622v-.492c0-5.348,3.808-7.563,8.033-7.563,4.4,0,7.911,2.215,7.911,7.473v.492c0,5.347-3.808,7.563-8.034,7.563C2264.055,2225.094,2260.567,2222.879,2260.567,2217.622Zm11.08.178v-.76c0-3.133-.983-4.408-3.145-4.408-2.039,0-3.1,1.365-3.1,4.206v.761c0,3.244,1.056,4.43,3.169,4.43C2270.59,2222.029,2271.646,2220.665,2271.646,2217.8Z" transform="translate(-2244.596 -2209.567)" fill="#fff"/>
    </g>
  </g>
</svg>
