<svg xmlns="http://www.w3.org/2000/svg" width="31.337" height="30.031" viewBox="0 0 31.337 30.031">
  <g id="good_icon" transform="translate(-846 -1966.635)">
    <g id="그룹_2647" data-name="그룹 2647" transform="translate(6 -1)">
      <g id="like_2_" data-name="like (2)" transform="translate(802 1951.196)">
        <g id="그룹_2646" data-name="그룹 2646" transform="translate(38 5.772)">
          <g id="그룹_2643" data-name="그룹 2643" transform="translate(0 10.667)">
            <g id="그룹_2642" data-name="그룹 2642">
              <path id="패스_4365" data-name="패스 4365" d="M31.337,28.62a2.9,2.9,0,0,0-.85-2.055,3.242,3.242,0,0,0,.836-2.493,3.375,3.375,0,0,0-3.405-2.96H19.852a18.773,18.773,0,0,0,1.039-5.223c0-2.832-2.406-5.223-3.917-5.223a4.1,4.1,0,0,0-2.366.8.653.653,0,0,0-.245.511V16.4L10.6,24.547l-.155.08v-.249a.653.653,0,0,0-.653-.653H3.264A3.267,3.267,0,0,0,0,26.988V37.434A3.267,3.267,0,0,0,3.264,40.7H7.181a3.272,3.272,0,0,0,3.072-2.158,8.512,8.512,0,0,0,3.456.853H25.695a3,3,0,0,0,2.959-2.28,2.947,2.947,0,0,0-.235-1.962,2.927,2.927,0,0,0,1.307-3.917A2.926,2.926,0,0,0,31.337,28.62Zm-2.754,1.611a.653.653,0,0,0-.373,1.124,1.618,1.618,0,0,1-.931,2.793.653.653,0,0,0-.373,1.124,1.615,1.615,0,0,1,.473,1.558A1.689,1.689,0,0,1,25.7,38.087H13.71a6.189,6.189,0,0,1-3.455-1.115.654.654,0,0,0-1.115.462,1.961,1.961,0,0,1-1.959,1.959H3.264a1.961,1.961,0,0,1-1.959-1.959V26.988A1.961,1.961,0,0,1,3.264,25.03H9.14v.653a.656.656,0,0,0,.311.556.667.667,0,0,0,.635.027l1.306-.653a.652.652,0,0,0,.3-.309l3.917-8.487a.665.665,0,0,0,.06-.274V12.326a2.753,2.753,0,0,1,1.306-.354c.716,0,2.611,1.778,2.611,3.917a20.331,20.331,0,0,1-1.263,5.643.652.652,0,0,0,.61.885h8.985a2.061,2.061,0,0,1,2.1,1.774,1.951,1.951,0,0,1-.93,1.848.654.654,0,0,0,.044,1.137,1.617,1.617,0,0,1-.554,3.054Z" transform="translate(0 -10.667)"/>
            </g>
          </g>
          <g id="그룹_2645" data-name="그룹 2645" transform="translate(9.14 25.03)">
            <g id="그룹_2644" data-name="그룹 2644">
              <path id="패스_4366" data-name="패스 4366" d="M149.986,245.333a.653.653,0,0,0-.653.653v11.751a.653.653,0,0,0,1.306,0V245.986A.653.653,0,0,0,149.986,245.333Z" transform="translate(-149.333 -245.333)"/>
            </g>
          </g>
        </g>
      </g>
      <line id="선_252" data-name="선 252" x2="10" transform="translate(859.5 1983.5)" fill="none" stroke="#000" stroke-linecap="round" stroke-width="1"/>
      <line id="선_253" data-name="선 253" x2="10" transform="translate(859.5 1987.5)" fill="none" stroke="#000" stroke-linecap="round" stroke-width="1"/>
      <line id="선_254" data-name="선 254" x2="10" transform="translate(857.5 1991.5)" fill="none" stroke="#000" stroke-linecap="round" stroke-width="1"/>
    </g>
    <g id="패스_4367" data-name="패스 4367" transform="translate(847 1981)">
      <path d="M 4.047687530517578 14.2461462020874 L 1.046300053596497 13.9669942855835 L 1.023200035095215 13.96484470367432 L 1 13.96484470367432 C 0.8661400079727173 13.96484470367432 0.5 13.41785430908203 0.5 13.00000476837158 L 0.5 1.000004649162292 C 0.5 0.7243046760559082 0.7243000268936157 0.5000047087669373 1 0.5000047087669373 L 1.019199967384338 0.5000047087669373 L 1.038349986076355 0.4985346794128418 L 4.554116249084473 0.2280888557434082 L 7.960440158843994 0.4984346926212311 L 7.980189800262451 0.5000047087669373 L 8 0.5000047087669373 C 8.275699615478516 0.5000047087669373 8.5 0.7243046760559082 8.5 1.000004649162292 L 8.5 13.00000476837158 C 8.498539924621582 13.07224464416504 8.381270408630371 13.31840515136719 8.105299949645996 13.58562469482422 C 7.828549861907959 13.85361480712891 7.576419830322266 13.96484470367432 7.502930164337158 13.96484470367432 L 7.482490062713623 13.96484470367432 L 7.462120056152344 13.96651458740234 L 4.047687530517578 14.2461462020874 Z" stroke="none"/>
      <path d="M 4.553414344787598 0.7296113967895508 L 1.076690196990967 0.997044563293457 L 1.038400173187256 0.9999942779541016 L 1 0.9999942779541016 L 1 12.9999942779541 C 1 13.1175479888916 1.097266674041748 13.35901927947998 1.184462070465088 13.47768783569336 L 4.050460338592529 13.74424648284912 L 7.421309947967529 13.46818447113037 L 7.433101654052734 13.46721839904785 C 7.603893280029297 13.3960428237915 7.91468620300293 13.09783935546875 8 12.92538833618164 L 8 0.9999942779541016 L 7.960380077362061 0.9999942779541016 L 7.920889854431152 0.9968643188476563 L 4.553414344787598 0.7296113967895508 M 4.554689884185791 -0.2734355926513672 L 8 -5.7220458984375e-06 C 8.552289962768555 -5.7220458984375e-06 9 0.4477148056030273 9 0.9999942779541016 L 9 12.9999942779541 C 9 13.55228424072266 8.055210113525391 14.46484470367432 7.502930164337158 14.46484470367432 L 4.044919967651367 14.74804496765137 L 1 14.46484470367432 C 0.4477100372314453 14.46484470367432 0 13.55228424072266 0 12.9999942779541 L 0 0.9999942779541016 C 0 0.4477148056030273 0.4477100372314453 -5.7220458984375e-06 1 -5.7220458984375e-06 L 4.554689884185791 -0.2734355926513672 Z" stroke="none"/>
    </g>
  </g>
</svg>
