<svg xmlns="http://www.w3.org/2000/svg" width="25.000" height="25.000" viewBox="0 0 36.243 26.673">
  <g id="language" transform="translate(7427.998 -2870.84)">
    <g id="그룹_2479" data-name="그룹 2479" transform="translate(-7427 2871.837)">
      <path id="패스_4309" data-name="패스 4309" d="M80.152,447.544c0-.872-.275-1.158-1.156-1.159q-4.725-.007-9.451.008a7.391,7.391,0,0,0-4.431,1.482c-.731.535-1.4,1.159-2.082,1.732a.432.432,0,0,1-.094-.043c-.2-.191-.393-.384-.59-.576a8.323,8.323,0,0,0-5.961-2.6q-4.622,0-9.244,0c-.911,0-1.207.3-1.208,1.2q-.007,4.8,0,9.6a2.647,2.647,0,0,0,0,.55c-.007,5.22.205,10.037,0,11.8a1.544,1.544,0,0,0,.275,1.247c.218.218.6.274,1.245.274H74.426c1.518,0,3.035.008,4.553,0,.866-.007,1.174-.319,1.174-1.153Q80.155,458.72,80.152,447.544Z" transform="translate(-45.908 -446.38)" fill="#e4e4e4" stroke="#000" stroke-miterlimit="10" stroke-width="2"/>
      <path id="패스_4310" data-name="패스 4310" d="M63.257,526.787s.24-4.009-15.959-5.769" transform="translate(-46.938 -501.699)" fill="#e4e4e4" stroke="#000" stroke-miterlimit="10" stroke-width="2"/>
      <path id="패스_4311" data-name="패스 4311" d="M114.289,526.787s-.24-4.009,15.96-5.769" transform="translate(-96.589 -501.699)" fill="#e4e4e4" stroke="#000" stroke-miterlimit="10" stroke-width="2"/>
      <path id="패스_4312" data-name="패스 4312" d="M112.158,459.141" transform="translate(-95.01 -455.838)" fill="#e4e4e4" stroke="#000" stroke-miterlimit="10" stroke-width="2"/>
      <line id="선_242" data-name="선 242" y2="20.935" transform="translate(17.148 3.303)" fill="none" stroke="#000" stroke-miterlimit="10" stroke-width="2"/>
    </g>
    <g id="그룹_2480" data-name="그룹 2480" transform="translate(-7427 2871.837)">
      <path id="패스_4309-2" data-name="패스 4309" d="M80.152,447.544c0-.872-.275-1.158-1.156-1.159q-4.725-.007-9.451.008a7.391,7.391,0,0,0-4.431,1.482c-.731.535-1.4,1.159-2.082,1.732a.432.432,0,0,1-.094-.043c-.2-.191-.393-.384-.59-.576a8.323,8.323,0,0,0-5.961-2.6q-4.622,0-9.244,0c-.911,0-1.207.3-1.208,1.2q-.007,4.8,0,9.6a2.647,2.647,0,0,0,0,.55c-.007,5.22.205,10.037,0,11.8a1.544,1.544,0,0,0,.275,1.247c.218.218.6.274,1.245.274H74.426c1.518,0,3.035.008,4.553,0,.866-.007,1.174-.319,1.174-1.153Q80.155,458.72,80.152,447.544Z" transform="translate(-45.908 -446.38)" fill="none" stroke="#000" stroke-miterlimit="10" stroke-width="2"/>
      <path id="패스_4310-2" data-name="패스 4310" d="M63.257,526.787s.24-4.009-15.959-5.769" transform="translate(-46.938 -501.699)" fill="none" stroke="#000" stroke-miterlimit="10" stroke-width="2"/>
      <path id="패스_4311-2" data-name="패스 4311" d="M114.289,526.787s-.24-4.009,15.96-5.769" transform="translate(-96.589 -501.699)" fill="none" stroke="#000" stroke-miterlimit="10" stroke-width="2"/>
      <path id="패스_4312-2" data-name="패스 4312" d="M112.158,459.141" transform="translate(-95.01 -455.838)" fill="none" stroke="#000" stroke-miterlimit="10" stroke-width="2"/>
      <line id="선_242-2" data-name="선 242" y2="20.935" transform="translate(17.148 3.303)" fill="none" stroke="#000" stroke-miterlimit="10" stroke-width="2"/>
    </g>
  </g>
</svg>
