<svg xmlns="http://www.w3.org/2000/svg" width="18.604" height="17.901" viewBox="0 0 18.604 17.901">
  <g id="like" transform="translate(0 0)">
    <path id="패스_4206" data-name="패스 4206" d="M574.421,4974.427h.315c1.43,0,2.86,0,4.29,0a1.623,1.623,0,0,1,.895,3.023c-.093.05-.188.1-.292.148a1.5,1.5,0,0,1,.911,1.829,1.278,1.278,0,0,1-.99,1.065,1.364,1.364,0,0,1,.7,1.307,1.3,1.3,0,0,1-.8,1.247c.1.068.191.121.271.188a1.1,1.1,0,0,1,.315,1.263,1.075,1.075,0,0,1-1.041.723c-3.289,0-6.578,0-9.867.005a.649.649,0,0,1-.713-.711c0-2.391-.006-4.78.009-7.17a5.33,5.33,0,0,1,.17-1.1,8.731,8.731,0,0,1,.694-1.973,6.854,6.854,0,0,1,1.077-1.6c.536-.588,1.086-1.166,1.6-1.77a1.7,1.7,0,0,0,.3-.643,6.7,6.7,0,0,0,.231-1.878,1.091,1.091,0,0,1,.889-1.024,1.571,1.571,0,0,1,1.748.882,4.259,4.259,0,0,1,.4,2.18,9.343,9.343,0,0,1-.436,2.383,8.478,8.478,0,0,1-.628,1.5C574.459,4974.336,574.445,4974.372,574.421,4974.427Z" transform="translate(-562.124 -4967.325)" fill="#80cbfd"/>
    <path id="패스_4207" data-name="패스 4207" d="M454.907,5149.319c0,1.443-.009,2.885.005,4.329a.644.644,0,0,1-.7.7c-1.217,0-2.435,0-3.652,0a.611.611,0,0,1-.663-.664q0-3.041,0-6.083c0-.88,0-1.761,0-2.642a.6.6,0,0,1,.316-.585.628.628,0,0,1,.277-.074q1.912-.007,3.825,0a.576.576,0,0,1,.592.624q0,2.2,0,4.4Z" transform="translate(-449.897 -5136.488)" fill="#80cbfd"/>
  </g>
</svg>
