<svg id="logo_dice" xmlns="http://www.w3.org/2000/svg" width="31.252" height="35.918" viewBox="0 0 31.252 35.918">
  <g id="그룹_2360" data-name="그룹 2360" transform="translate(0 0)">
    <path id="패스_4215" data-name="패스 4215" d="M176.8,578.7c0-.259,0-.458,0-.658q0-2.136-.005-4.271c0-.609-.3-.778-.841-.467-1.61.933-3.216,1.873-4.831,2.795a.689.689,0,0,0-.386.687c.014,1.719.009,3.437.016,5.156a.381.381,0,0,1-.2.4c-1.253.7-2.5,1.4-3.749,2.107a1.759,1.759,0,0,1-.184.07c0-.143,0-.25,0-.358q-.01-7.963-.013-15.926a.461.461,0,0,1,.158-.347c1.278-.755,2.565-1.494,3.85-2.236a1.522,1.522,0,0,1,.162-.062c0,.137,0,.243,0,.349q0,2.288.007,4.576c0,.567.318.753.8.472,1.584-.917,3.164-1.839,4.752-2.748a.647.647,0,0,0,.357-.641c-.012-1.719-.009-3.437-.012-5.156,0-.164,0-.3.179-.408,1.263-.719,2.519-1.451,3.778-2.178.05-.029.107-.047.2-.086.009.124.022.22.022.315q.011,7.963.025,15.926a.451.451,0,0,1-.254.457c-1.2.692-2.386,1.4-3.578,2.1C176.991,578.606,176.928,578.636,176.8,578.7Z" transform="translate(-150.522 -549.827)" fill="#fff" stroke="#000" stroke-miterlimit="10" stroke-width="1"/>
    <path id="패스_4216" data-name="패스 4216" d="M94.733,578.936l-1.582-.924c-.755-.442-1.507-.887-2.266-1.322a.387.387,0,0,1-.231-.38q0-8.024-.018-16.049c0-.069.01-.138.019-.25.112.054.2.09.284.138,1.2.695,2.386,1.4,3.588,2.081a.5.5,0,0,1,.28.508c-.007,1.688,0,3.377,0,5.065a.667.667,0,0,0,.377.661c1.583.9,3.156,1.813,4.732,2.722.511.294.816.115.815-.479q0-2.273-.005-4.546c0-.108,0-.215,0-.4l1,.576c.979.561,1.957,1.124,2.94,1.678a.433.433,0,0,1,.251.432q0,7.994.017,15.988c0,.079-.01.158-.019.291l-1.481-.825c-.8-.446-1.595-.9-2.4-1.333a.423.423,0,0,1-.243-.437c0-1.729-.006-3.458,0-5.187a.625.625,0,0,0-.342-.619c-1.634-.931-3.262-1.874-4.893-2.81-.535-.307-.828-.132-.828.487q0,2.288.006,4.576Z" transform="translate(-89.724 -550.018)" fill="#fff" stroke="#000" stroke-miterlimit="10" stroke-width="1"/>
    <path id="패스_4217" data-name="패스 4217" d="M121.54,523.2c-.853.495-1.651.959-2.451,1.421q-5.719,3.3-11.434,6.614a.6.6,0,0,1-.71-.006c-1.164-.688-2.343-1.352-3.516-2.024-.077-.044-.151-.092-.277-.17l1.663-.962c.855-.493,1.711-.983,2.564-1.478.482-.28.495-.646.019-.921-1.611-.931-3.23-1.849-4.84-2.781a.629.629,0,0,0-.71.013q-2.212,1.323-4.437,2.625a.449.449,0,0,1-.376.021c-1.29-.735-2.571-1.486-3.854-2.233a.955.955,0,0,1-.1-.091c.1-.064.185-.124.274-.175q5.233-3.017,10.467-6.033c1.093-.629,2.186-1.258,3.285-1.875a.461.461,0,0,1,.377-.035c1.25.7,2.492,1.419,3.734,2.135.052.03.1.07.181.131-.172.109-.32.209-.474.3q-1.875,1.085-3.751,2.167c-.455.264-.457.634.005.9,1.6.926,3.211,1.842,4.812,2.77a.663.663,0,0,0,.739,0c1.458-.851,2.924-1.688,4.38-2.541a.5.5,0,0,1,.582,0c1.176.689,2.361,1.361,3.542,2.041C121.318,523.053,121.4,523.109,121.54,523.2Z" transform="translate(-91.679 -514.059)" fill="#fff" stroke="#000" stroke-miterlimit="10" stroke-width="1"/>
    <path id="패스_4218" data-name="패스 4218" d="M117.3,519.236a.629.629,0,0,0-.365-.607q-2.388-1.355-4.762-2.734a.671.671,0,0,0-.762,0c-1.122.66-2.252,1.305-3.38,1.955-.26.15-.523.3-.84.474,0-.168,0-.276,0-.384,0-1.485-.01-2.97,0-4.455a.7.7,0,0,0-.387-.693q-2.374-1.349-4.735-2.72a.638.638,0,0,0-.711,0c-.966.564-1.939,1.115-2.908,1.673q-6,3.458-12,6.913a.674.674,0,0,0-.376.663q.017,4.547.017,9.094.005,4.074.005,8.148a.664.664,0,0,0,.347.652q2.363,1.367,4.716,2.753a.662.662,0,0,0,.739,0c.994-.576,2-1.134,3-1.7.43-.242.861-.483,1.343-.752,0,.176,0,.286,0,.4,0,1.505.005,3.011-.008,4.516a.689.689,0,0,0,.388.689q2.375,1.316,4.736,2.655a.677.677,0,0,0,.741,0q2.373-1.351,4.755-2.684a.625.625,0,0,0,.351-.617c-.015-1.241-.015-2.482-.019-3.723,0-.394,0-.788,0-1.237.141.073.238.12.331.172,1.339.751,2.681,1.5,4.014,2.259a.684.684,0,0,0,.766-.006q2.349-1.392,4.708-2.766a.592.592,0,0,0,.322-.57Q117.306,527.918,117.3,519.236Zm-16.042,25.443-1.481-.825c-.8-.446-1.595-.9-2.4-1.333a.423.423,0,0,1-.243-.437c0-1.729-.006-3.458,0-5.187a.625.625,0,0,0-.342-.618c-1.634-.931-3.262-1.874-4.893-2.81-.535-.307-.828-.132-.828.487q0,2.288.006,4.577c0,.09,0,.18,0,.353l-1.582-.924c-.755-.442-1.507-.887-2.266-1.322a.387.387,0,0,1-.231-.38q0-8.024-.018-16.049c0-.069.01-.138.019-.25.112.054.2.09.284.138,1.2.695,2.386,1.4,3.588,2.081a.5.5,0,0,1,.28.508c-.007,1.688,0,3.377,0,5.065a.667.667,0,0,0,.377.661c1.583.9,3.156,1.813,4.732,2.722.511.294.816.115.815-.479q0-2.273-.005-4.546c0-.108,0-.215,0-.4l1,.576c.979.561,1.957,1.125,2.94,1.678a.433.433,0,0,1,.251.432q0,7.994.017,15.988C101.278,544.467,101.268,544.546,101.259,544.679Zm.789-17.54a.6.6,0,0,1-.71-.006c-1.164-.688-2.343-1.352-3.516-2.024-.077-.044-.151-.092-.277-.17l1.663-.962c.855-.493,1.711-.983,2.564-1.478.482-.28.495-.646.019-.921-1.611-.931-3.23-1.849-4.84-2.781a.629.629,0,0,0-.71.013q-2.212,1.323-4.437,2.625a.449.449,0,0,1-.376.021c-1.29-.735-2.571-1.486-3.854-2.233a1,1,0,0,1-.1-.091c.1-.064.185-.124.274-.175q5.233-3.018,10.467-6.033c1.093-.629,2.186-1.258,3.285-1.875a.461.461,0,0,1,.377-.034c1.25.7,2.492,1.419,3.734,2.134.052.03.1.07.181.131-.172.109-.32.209-.474.3q-1.875,1.085-3.751,2.167c-.455.264-.457.634.005.9,1.6.926,3.211,1.842,4.812,2.77a.662.662,0,0,0,.739,0c1.458-.851,2.924-1.688,4.38-2.541a.5.5,0,0,1,.582,0c1.176.689,2.361,1.361,3.542,2.041.086.049.169.1.308.192-.853.495-1.651.959-2.451,1.422Q107.763,523.829,102.048,527.139Zm14.131,9.472c-1.2.692-2.386,1.4-3.578,2.1-.06.035-.124.065-.255.134,0-.259,0-.458,0-.658q0-2.136-.005-4.271c0-.609-.3-.778-.841-.467-1.61.933-3.216,1.873-4.831,2.795a.689.689,0,0,0-.386.687c.014,1.718.009,3.437.016,5.156a.381.381,0,0,1-.2.4c-1.253.7-2.5,1.4-3.749,2.106a1.719,1.719,0,0,1-.184.07c0-.143,0-.25,0-.358q-.01-7.963-.013-15.926a.461.461,0,0,1,.158-.347c1.278-.755,2.565-1.494,3.85-2.236a1.517,1.517,0,0,1,.162-.062c0,.137,0,.243,0,.349q0,2.288.007,4.576c0,.567.318.753.8.472,1.584-.917,3.164-1.839,4.752-2.749a.647.647,0,0,0,.357-.641c-.012-1.719-.009-3.437-.012-5.156,0-.164-.005-.3.179-.408,1.263-.719,2.519-1.451,3.778-2.178a2.078,2.078,0,0,1,.2-.086c.009.124.022.22.022.315q.011,7.963.025,15.926A.451.451,0,0,1,116.178,536.611Z" transform="translate(-86.071 -509.967)"/>
  </g>
</svg>
