<svg id="logo" xmlns="http://www.w3.org/2000/svg" width="216" height="61.121" viewBox="0 0 216 61.121">
  <g id="그룹_2470" data-name="그룹 2470">
    <path id="패스_4301" data-name="패스 4301" d="M1823.949,2262.989c0-.44,0-.78,0-1.12q0-3.634-.009-7.268c0-1.036-.519-1.323-1.431-.8-2.739,1.588-5.472,3.187-8.222,4.756a1.173,1.173,0,0,0-.656,1.169c.024,2.925.016,5.849.027,8.774a.648.648,0,0,1-.338.679c-2.132,1.185-4.253,2.389-6.379,3.585a2.958,2.958,0,0,1-.312.12c0-.243,0-.426,0-.609q-.017-13.551-.023-27.1a.785.785,0,0,1,.269-.591c2.174-1.285,4.365-2.542,6.552-3.8a2.6,2.6,0,0,1,.275-.106c0,.234,0,.414,0,.593q.006,3.894.013,7.788c0,.966.541,1.282,1.368.8,2.7-1.56,5.384-3.13,8.086-4.677a1.1,1.1,0,0,0,.608-1.091c-.021-2.925-.015-5.849-.021-8.774,0-.279-.008-.517.3-.695,2.15-1.223,4.287-2.469,6.429-3.706.086-.05.182-.08.334-.146.015.212.037.374.037.536q.019,13.551.043,27.1a.768.768,0,0,1-.432.778c-2.037,1.177-4.06,2.379-6.088,3.572C1824.281,2262.82,1824.172,2262.871,1823.949,2262.989Z" transform="translate(-1779.238 -2213.849)" fill="#fff" stroke="#000" stroke-miterlimit="10" stroke-width="1"/>
    <path id="패스_4302" data-name="패스 4302" d="M1737.608,2263.216l-2.692-1.573c-1.284-.751-2.565-1.51-3.856-2.25a.658.658,0,0,1-.393-.646q-.006-13.655-.03-27.31c0-.117.017-.234.032-.426.19.092.343.153.483.234,2.034,1.182,4.061,2.377,6.106,3.542a.85.85,0,0,1,.476.865c-.011,2.873.009,5.746,0,8.619a1.136,1.136,0,0,0,.641,1.125c2.693,1.529,5.37,3.085,8.053,4.632.869.5,1.388.2,1.387-.815q0-3.868-.009-7.736c0-.184,0-.367,0-.676.639.368,1.17.676,1.7.98,1.667.954,3.331,1.913,5,2.856a.737.737,0,0,1,.428.736q0,13.6.028,27.206c0,.135-.017.269-.032.495l-2.521-1.4c-1.36-.759-2.714-1.528-4.083-2.269a.721.721,0,0,1-.413-.743c.008-2.942-.01-5.884,0-8.826a1.064,1.064,0,0,0-.583-1.052c-2.781-1.584-5.55-3.189-8.327-4.782-.911-.522-1.41-.224-1.409.829q0,3.894.01,7.788Z" transform="translate(-1729.085 -2214.006)" fill="#fff" stroke="#000" stroke-miterlimit="10" stroke-width="1"/>
    <path id="패스_4303" data-name="패스 4303" d="M1781.512,2199.89c-1.451.842-2.81,1.633-4.171,2.419q-9.732,5.622-19.457,11.255a1.025,1.025,0,0,1-1.208-.01c-1.981-1.171-3.987-2.3-5.983-3.445-.13-.075-.256-.157-.471-.289.989-.572,1.909-1.106,2.83-1.637,1.454-.839,2.911-1.672,4.363-2.515.821-.476.842-1.1.032-1.566-2.742-1.584-5.5-3.147-8.237-4.732a1.07,1.07,0,0,0-1.208.022q-3.765,2.252-7.551,4.468a.765.765,0,0,1-.641.035c-2.195-1.251-4.375-2.528-6.558-3.8a1.643,1.643,0,0,1-.176-.155c.17-.109.314-.21.466-.3q8.9-5.135,17.811-10.266c1.859-1.071,3.72-2.141,5.591-3.191a.784.784,0,0,1,.642-.059c2.128,1.194,4.24,2.415,6.354,3.632.088.051.166.119.309.223-.293.185-.545.355-.807.507q-3.19,1.846-6.384,3.688c-.775.449-.777,1.08.009,1.533,2.727,1.575,5.464,3.135,8.188,4.714a1.127,1.127,0,0,0,1.258,0c2.481-1.448,4.976-2.872,7.454-4.324a.85.85,0,0,1,.99-.005c2,1.172,4.017,2.317,6.028,3.472C1781.134,2199.648,1781.275,2199.742,1781.512,2199.89Z" transform="translate(-1730.697 -2184.343)" fill="#fff" stroke="#000" stroke-miterlimit="10" stroke-width="1"/>
    <path id="패스_4304" data-name="패스 4304" d="M1779.215,2196.74a1.069,1.069,0,0,0-.621-1.032q-4.064-2.3-8.1-4.652a1.141,1.141,0,0,0-1.3,0c-1.909,1.123-3.833,2.221-5.752,3.326-.443.255-.889.5-1.43.807,0-.286,0-.469,0-.653,0-2.527-.017-5.054,0-7.581a1.2,1.2,0,0,0-.659-1.178q-4.039-2.3-8.057-4.629a1.086,1.086,0,0,0-1.211.008c-1.644.96-3.3,1.9-4.949,2.848q-10.211,5.884-20.423,11.763a1.146,1.146,0,0,0-.639,1.129q.029,7.737.028,15.474.009,6.932.009,13.865a1.131,1.131,0,0,0,.591,1.11q4.022,2.326,8.025,4.685a1.126,1.126,0,0,0,1.258,0c1.692-.98,3.4-1.93,5.1-2.89.732-.413,1.466-.821,2.285-1.281,0,.3,0,.487,0,.674,0,2.562.009,5.123-.014,7.685a1.172,1.172,0,0,0,.661,1.172q4.041,2.24,8.06,4.519a1.152,1.152,0,0,0,1.261-.008q4.037-2.3,8.092-4.568a1.064,1.064,0,0,0,.6-1.05c-.025-2.112-.025-4.223-.032-6.335,0-.67,0-1.341,0-2.105.24.125.4.2.563.293,2.279,1.278,4.562,2.548,6.831,3.844a1.165,1.165,0,0,0,1.3-.01q4-2.369,8.012-4.708a1.007,1.007,0,0,0,.547-.97Q1779.223,2211.513,1779.215,2196.74Zm-27.3,43.3-2.521-1.4c-1.36-.758-2.714-1.528-4.083-2.269a.72.72,0,0,1-.413-.743c.008-2.942-.01-5.884,0-8.827a1.064,1.064,0,0,0-.583-1.052c-2.781-1.584-5.55-3.189-8.327-4.782-.911-.523-1.41-.224-1.408.829q0,3.894.01,7.788c0,.153,0,.306,0,.6l-2.692-1.573c-1.285-.751-2.565-1.509-3.856-2.25a.658.658,0,0,1-.393-.646q-.006-13.655-.03-27.31c0-.117.017-.234.032-.426.19.092.343.152.483.234,2.034,1.182,4.061,2.377,6.106,3.542a.85.85,0,0,1,.476.865c-.012,2.873.008,5.746,0,8.618a1.135,1.135,0,0,0,.641,1.125c2.693,1.529,5.37,3.086,8.053,4.632.869.5,1.388.2,1.387-.815q0-3.868-.009-7.736c0-.183,0-.367,0-.676.639.368,1.17.676,1.7.98,1.666.954,3.33,1.913,5,2.856a.738.738,0,0,1,.428.736q0,13.6.029,27.206C1751.949,2239.675,1751.931,2239.81,1751.916,2240.036Zm1.342-29.847a1.025,1.025,0,0,1-1.208-.01c-1.981-1.171-3.987-2.3-5.983-3.445-.13-.075-.256-.157-.471-.289.989-.572,1.909-1.106,2.83-1.637,1.454-.838,2.911-1.672,4.363-2.514.821-.476.842-1.1.032-1.567-2.742-1.584-5.5-3.147-8.237-4.732a1.071,1.071,0,0,0-1.208.022q-3.765,2.251-7.551,4.468a.765.765,0,0,1-.641.035c-2.195-1.251-4.375-2.528-6.558-3.8a1.648,1.648,0,0,1-.176-.155c.17-.109.314-.211.466-.3q8.9-5.135,17.811-10.266c1.859-1.071,3.72-2.141,5.591-3.191a.785.785,0,0,1,.642-.059c2.128,1.194,4.24,2.415,6.354,3.632.088.051.166.119.308.223-.293.185-.544.355-.806.507q-3.19,1.846-6.384,3.688c-.775.449-.777,1.08.009,1.534,2.727,1.575,5.464,3.134,8.188,4.714a1.126,1.126,0,0,0,1.258,0c2.481-1.448,4.976-2.872,7.454-4.324a.85.85,0,0,1,.99,0c2,1.172,4.017,2.317,6.028,3.472.147.084.288.179.525.327-1.451.842-2.81,1.632-4.171,2.419Q1762.984,2204.557,1753.258,2210.188Zm24.046,16.118c-2.037,1.177-4.06,2.379-6.088,3.572-.1.06-.211.112-.434.229,0-.44,0-.78,0-1.12q0-3.634-.009-7.268c0-1.037-.519-1.324-1.431-.8-2.739,1.588-5.472,3.187-8.222,4.756a1.173,1.173,0,0,0-.656,1.169c.024,2.924.016,5.849.027,8.774a.648.648,0,0,1-.338.679c-2.132,1.185-4.253,2.388-6.379,3.584a2.851,2.851,0,0,1-.312.12c0-.242,0-.426,0-.609q-.017-13.55-.023-27.1a.786.786,0,0,1,.269-.591c2.174-1.285,4.365-2.542,6.552-3.8a2.574,2.574,0,0,1,.275-.106c0,.234,0,.414,0,.594q.006,3.894.013,7.788c0,.966.541,1.282,1.368.8,2.7-1.56,5.384-3.13,8.086-4.677a1.1,1.1,0,0,0,.608-1.091c-.021-2.924-.015-5.849-.021-8.774,0-.28-.008-.517.3-.7,2.15-1.223,4.287-2.469,6.429-3.706a3.623,3.623,0,0,1,.334-.146c.015.212.037.374.037.536q.019,13.551.043,27.1A.768.768,0,0,1,1777.3,2226.307Z" transform="translate(-1726.071 -2180.967)"/>
  </g>
  <g id="그룹_2471" data-name="그룹 2471" transform="translate(72.943 9.718)">
    <path id="패스_4305" data-name="패스 4305" d="M1940.732,2211.282h9.958V2225h11.176v-13.718h10.01v35.593h-10.01V2232.15H1950.69v14.724h-9.958Z" transform="translate(-1940.732 -2210.699)"/>
    <path id="패스_4306" data-name="패스 4306" d="M2056.674,2211.282h10.647l12.341,35.593h-10.169l-2.383-7.044h-11.653l-2.224,7.044h-9Zm.689,22.14h7.733l-3.76-11.812h-.212Z" transform="translate(-2009.059 -2210.699)"/>
    <path id="패스_4307" data-name="패스 4307" d="M2156.295,2228.529v-1.165c0-13.506,8.633-17.8,18.484-17.8,4.926,0,8.74.954,10.7,1.96v7.309a26.207,26.207,0,0,0-9.322-1.642c-7.574,0-9.587,3.919-9.587,9.9v1.589c0,6.621,1.43,10.487,7.627,10.487a12.006,12.006,0,0,0,3.813-.583v-5.561h-5.084v-6.515h14.354v17.479a36.5,36.5,0,0,1-12.765,2.278C2163.233,2246.272,2156.295,2241.611,2156.295,2228.529Z" transform="translate(-2083.045 -2209.567)"/>
    <path id="패스_4308" data-name="패스 4308" d="M2260.567,2228.635v-1.166c0-12.658,8.21-17.9,17.32-17.9,9.481,0,17.055,5.244,17.055,17.691v1.165c0,12.659-8.21,17.9-17.32,17.9C2268.088,2246.325,2260.567,2241.082,2260.567,2228.635Zm23.887.424v-1.8c0-7.415-2.118-10.434-6.78-10.434-4.4,0-6.674,3.231-6.674,9.958v1.8c0,7.68,2.278,10.487,6.833,10.487C2282.177,2239.069,2284.454,2235.838,2284.454,2229.058Z" transform="translate(-2151.885 -2209.567)"/>
  </g>
</svg>
