<svg xmlns="http://www.w3.org/2000/svg" width="92.014" height="105.751" viewBox="0 0 92.014 105.751">
  <g id="logo_symbol" transform="translate(-86.071 -509.967)">
    <g id="그룹_2367" data-name="그룹 2367" transform="translate(86.071 509.967)">
      <path id="패스_4222" data-name="패스 4222" d="M196.616,615.513c0-.761,0-1.349,0-1.937q-.007-6.288-.016-12.575c0-1.793-.9-2.29-2.475-1.376-4.739,2.747-9.468,5.514-14.225,8.229a2.029,2.029,0,0,0-1.136,2.023c.042,5.06.027,10.12.046,15.18a1.121,1.121,0,0,1-.584,1.175c-3.689,2.05-7.359,4.133-11.037,6.2a5.081,5.081,0,0,1-.541.207c0-.42,0-.737,0-1.053q-.029-23.445-.039-46.89a1.359,1.359,0,0,1,.465-1.022c3.762-2.223,7.551-4.4,11.337-6.583a4.433,4.433,0,0,1,.476-.183c0,.4,0,.716,0,1.027q.011,6.738.022,13.474c0,1.67.936,2.218,2.366,1.39,4.663-2.7,9.316-5.416,13.991-8.092a1.9,1.9,0,0,0,1.052-1.887c-.036-5.06-.026-10.12-.036-15.18,0-.483-.015-.895.527-1.2,3.72-2.117,7.417-4.273,11.124-6.413.148-.086.315-.138.579-.252.026.366.065.647.065.927q.033,23.445.074,46.89a1.328,1.328,0,0,1-.747,1.346c-3.525,2.037-7.025,4.117-10.534,6.18C197.188,615.221,197,615.31,196.616,615.513Z" transform="translate(-119.255 -530.49)" fill="#fff" stroke="#000" stroke-miterlimit="10" stroke-width="1"/>
      <path id="패스_4223" data-name="패스 4223" d="M102.7,615.732,98.04,613.01c-2.222-1.3-4.438-2.612-6.672-3.892a1.139,1.139,0,0,1-.68-1.118q-.011-23.626-.052-47.252c0-.2.029-.405.055-.737.329.159.593.264.836.406,3.52,2.045,7.026,4.113,10.564,6.128a1.471,1.471,0,0,1,.824,1.5c-.02,4.97.015,9.941-.008,14.912a1.965,1.965,0,0,0,1.109,1.946c4.66,2.645,9.292,5.338,13.934,8.015,1.5.866,2.4.339,2.4-1.411q-.005-6.693-.015-13.385c0-.318,0-.634,0-1.169,1.106.637,2.025,1.169,2.946,1.7,2.883,1.651,5.762,3.311,8.657,4.942a1.276,1.276,0,0,1,.74,1.273q0,23.536.049,47.072c0,.233-.03.465-.056.856-1.517-.844-2.94-1.636-4.362-2.429-2.353-1.312-4.7-2.643-7.065-3.925a1.246,1.246,0,0,1-.714-1.285c.014-5.09-.016-10.181,0-15.271a1.84,1.84,0,0,0-1.008-1.821c-4.812-2.741-9.6-5.518-14.407-8.273-1.576-.9-2.439-.387-2.437,1.435q.008,6.737.017,13.474Z" transform="translate(-87.952 -530.588)" fill="#fff" stroke="#000" stroke-miterlimit="10" stroke-width="1"/>
      <path id="패스_4224" data-name="패스 4224" d="M176.879,538.975c-2.51,1.456-4.861,2.824-7.216,4.185Q152.826,552.888,136,562.633a1.774,1.774,0,0,1-2.09-.018c-3.427-2.027-6.9-3.979-10.352-5.96-.226-.129-.444-.272-.814-.5,1.711-.99,3.3-1.913,4.9-2.833,2.516-1.451,5.037-2.893,7.549-4.351,1.42-.824,1.456-1.9.056-2.71-4.743-2.74-9.509-5.445-14.251-8.188a1.852,1.852,0,0,0-2.09.039q-6.514,3.9-13.065,7.73a1.322,1.322,0,0,1-1.108.061c-3.8-2.164-7.57-4.374-11.346-6.575a2.858,2.858,0,0,1-.305-.268c.295-.189.543-.365.806-.516q15.406-8.884,30.816-17.762c3.217-1.853,6.436-3.7,9.673-5.521a1.358,1.358,0,0,1,1.111-.1c3.681,2.065,7.336,4.179,10.994,6.284.152.088.287.206.534.386-.507.32-.942.615-1.4.877q-5.52,3.194-11.045,6.38c-1.341.777-1.345,1.868.016,2.653,4.719,2.726,9.453,5.423,14.168,8.156a1.95,1.95,0,0,0,2.177-.005c4.292-2.506,8.609-4.969,12.9-7.482a1.47,1.47,0,0,1,1.713-.009c3.462,2.028,6.951,4.009,10.429,6.008C176.225,538.555,176.469,538.719,176.879,538.975Z" transform="translate(-88.958 -512.074)" fill="#fff" stroke="#000" stroke-miterlimit="10" stroke-width="1"/>
      <path id="패스_4225" data-name="패스 4225" d="M178.021,537.257a1.851,1.851,0,0,0-1.074-1.786q-7.031-3.988-14.021-8.049a1.974,1.974,0,0,0-2.244,0c-3.3,1.943-6.631,3.843-9.952,5.755-.766.44-1.539.869-2.473,1.4,0-.5,0-.812,0-1.129-.006-4.373-.03-8.745,0-13.117a2.071,2.071,0,0,0-1.14-2.039q-6.989-3.971-13.941-8.009a1.879,1.879,0,0,0-2.095.014c-2.844,1.66-5.709,3.282-8.563,4.927Q104.847,525.4,87.177,535.573a1.983,1.983,0,0,0-1.106,1.953q.051,13.386.049,26.774.015,11.994.016,23.988a1.956,1.956,0,0,0,1.023,1.921q6.958,4.025,13.885,8.106a1.948,1.948,0,0,0,2.177-.008c2.928-1.695,5.885-3.34,8.832-5,1.266-.714,2.536-1.421,3.953-2.215,0,.519,0,.842,0,1.166,0,4.432.015,8.864-.025,13.3a2.029,2.029,0,0,0,1.143,2.028q6.993,3.875,13.945,7.818a1.993,1.993,0,0,0,2.182-.013q6.986-3.977,14-7.9a1.841,1.841,0,0,0,1.033-1.817c-.044-3.653-.043-7.307-.056-10.96,0-1.16,0-2.32-.005-3.643.416.216.7.353.975.507,3.943,2.211,7.894,4.409,11.819,6.651a2.015,2.015,0,0,0,2.257-.018q6.916-4.1,13.862-8.145a1.742,1.742,0,0,0,.947-1.679Q178.035,562.818,178.021,537.257Zm-47.233,74.91c-1.517-.844-2.94-1.636-4.362-2.429-2.353-1.312-4.7-2.643-7.065-3.925a1.246,1.246,0,0,1-.714-1.285c.014-5.09-.016-10.181,0-15.272a1.84,1.84,0,0,0-1.008-1.82c-4.812-2.741-9.6-5.518-14.407-8.273-1.576-.9-2.439-.387-2.437,1.435q.008,6.737.017,13.474c0,.265,0,.53,0,1.038l-4.658-2.721c-2.222-1.3-4.438-2.612-6.672-3.892a1.139,1.139,0,0,1-.68-1.118q-.011-23.626-.052-47.252c0-.2.029-.405.055-.737.329.159.593.264.836.406,3.52,2.045,7.026,4.113,10.564,6.128a1.471,1.471,0,0,1,.824,1.5c-.02,4.97.015,9.941-.008,14.912a1.965,1.965,0,0,0,1.109,1.946c4.66,2.645,9.292,5.338,13.934,8.015,1.5.866,2.4.339,2.4-1.411q-.005-6.693-.015-13.385c0-.318,0-.634,0-1.169,1.106.637,2.025,1.169,2.946,1.7,2.883,1.651,5.762,3.311,8.657,4.942a1.276,1.276,0,0,1,.74,1.273q0,23.536.049,47.072C130.845,611.544,130.815,611.776,130.788,612.168Zm2.322-51.641a1.774,1.774,0,0,1-2.09-.018c-3.427-2.027-6.9-3.979-10.352-5.96-.226-.129-.444-.272-.814-.5,1.711-.99,3.3-1.913,4.9-2.833,2.516-1.451,5.037-2.893,7.549-4.351,1.42-.824,1.456-1.9.056-2.71-4.743-2.74-9.509-5.445-14.251-8.188a1.852,1.852,0,0,0-2.09.039q-6.514,3.9-13.065,7.73a1.322,1.322,0,0,1-1.108.061c-3.8-2.164-7.57-4.374-11.347-6.575a2.937,2.937,0,0,1-.3-.267c.294-.189.543-.365.806-.516q15.406-8.884,30.816-17.762c3.217-1.853,6.436-3.7,9.673-5.521a1.358,1.358,0,0,1,1.111-.1c3.681,2.065,7.336,4.179,10.994,6.284.152.088.287.206.533.386-.507.32-.942.615-1.4.877q-5.52,3.194-11.045,6.38c-1.341.777-1.345,1.868.016,2.653,4.719,2.726,9.453,5.423,14.167,8.156a1.949,1.949,0,0,0,2.177-.005c4.292-2.506,8.609-4.969,12.9-7.482a1.47,1.47,0,0,1,1.713-.009c3.462,2.028,6.951,4.009,10.429,6.008.254.146.5.309.908.566-2.51,1.456-4.861,2.824-7.216,4.185Q149.939,550.781,133.111,560.526Zm41.6,27.888c-3.525,2.037-7.025,4.117-10.534,6.18-.178.1-.365.193-.75.4,0-.761,0-1.349,0-1.937q-.007-6.288-.016-12.575c0-1.793-.9-2.29-2.475-1.376-4.739,2.747-9.468,5.514-14.225,8.229a2.029,2.029,0,0,0-1.136,2.023c.042,5.06.027,10.12.046,15.18a1.121,1.121,0,0,1-.584,1.175c-3.689,2.05-7.359,4.133-11.037,6.2a5.081,5.081,0,0,1-.541.207c0-.42,0-.737,0-1.054q-.029-23.445-.039-46.89a1.358,1.358,0,0,1,.465-1.022c3.762-2.223,7.552-4.4,11.337-6.583a4.408,4.408,0,0,1,.476-.183c0,.4,0,.715,0,1.026q.01,6.738.022,13.474c0,1.67.936,2.218,2.366,1.39,4.663-2.7,9.316-5.416,13.991-8.092a1.9,1.9,0,0,0,1.052-1.887c-.036-5.06-.026-10.12-.036-15.18,0-.483-.015-.895.527-1.2,3.72-2.117,7.417-4.273,11.124-6.413a6.206,6.206,0,0,1,.579-.252c.026.366.065.647.065.927q.033,23.445.074,46.89A1.328,1.328,0,0,1,174.715,588.414Z" transform="translate(-86.071 -509.967)"/>
    </g>
  </g>
</svg>
