<svg xmlns="http://www.w3.org/2000/svg" xmlns:xlink="http://www.w3.org/1999/xlink" width="108" height="30" viewBox="0 0 108 30">
  <defs>
    <linearGradient id="linear-gradient" x1="0.543" y1="0.872" x2="0.125" gradientUnits="objectBoundingBox">
      <stop offset="0" stop-color="#80cbfd"/>
      <stop offset="1" stop-color="#53baff"/>
    </linearGradient>
  </defs>
  <g id="main_go" transform="translate(-772 -1154)">
    <g id="그룹_2564" data-name="그룹 2564" transform="translate(261)">
      <g id="구성_요소_48_103" data-name="구성 요소 48 – 103" transform="translate(511 1154)" opacity="0.75">
        <rect id="사각형_1538" data-name="사각형 1538" width="108" height="30" rx="15" fill="url(#linear-gradient)"/>
        <g id="그룹_2515" data-name="그룹 2515" transform="translate(69.175 10.319)" opacity="0">
          <line id="선_243" data-name="선 243" x2="4.326" y2="4.326" fill="none" stroke="#fff" stroke-linecap="round" stroke-width="3"/>
          <line id="선_244" data-name="선 244" y1="4.326" x2="4.326" transform="translate(0 4.326)" fill="none" stroke="#fff" stroke-linecap="round" stroke-width="3"/>
        </g>
      </g>
      <g id="그룹_2562" data-name="그룹 2562" transform="translate(-111 1138.437)">
        <path id="패스_4338" data-name="패스 4338" d="M2156.295,2216.075v-.4c0-4.636,2.963-6.108,6.344-6.108a8.667,8.667,0,0,1,3.672.673v2.509a9,9,0,0,0-3.2-.563c-2.6,0-3.291,1.345-3.291,3.4v.545c0,2.272.491,3.6,2.618,3.6a4.122,4.122,0,0,0,1.309-.2v-1.909H2162v-2.236h4.927v6a12.53,12.53,0,0,1-4.381.782C2158.677,2222.165,2156.295,2220.565,2156.295,2216.075Z" transform="translate(-1492.102 -2185.101)" fill="#fff"/>
        <path id="패스_4339" data-name="패스 4339" d="M2260.567,2216.112v-.4c0-4.345,2.818-6.145,5.945-6.145,3.254,0,5.854,1.8,5.854,6.072v.4c0,4.345-2.818,6.145-5.945,6.145C2263.148,2222.183,2260.567,2220.384,2260.567,2216.112Zm8.2.145v-.618c0-2.545-.727-3.581-2.327-3.581-1.509,0-2.291,1.109-2.291,3.418v.618c0,2.636.782,3.6,2.345,3.6C2267.984,2219.693,2268.766,2218.584,2268.766,2216.257Z" transform="translate(-1584.556 -2185.101)" fill="#fff"/>
      </g>
    </g>
  </g>
</svg>
