<svg xmlns="http://www.w3.org/2000/svg" width="35.373" height="35.945" viewBox="0 0 30.373 15.945">
  <g id="mian_math_on" transform="translate(1 -4.039)">
    <g id="그룹_2472" data-name="그룹 2472" transform="translate(0 5.039)">
      <path id="패스_4213" data-name="패스 4213" d="M499,313.185h3.274l3,3L510.822,303h16.551" transform="translate(-499 -303)" fill="none" stroke="#53baff" stroke-linecap="round" stroke-miterlimit="10" stroke-width="2"/>
      <g id="Opar2a" transform="translate(12.186 2.774)">
        <g id="그룹_2342" data-name="그룹 2342">
          <path id="패스_4214" data-name="패스 4214" d="M566,328.972l1.227-1.161c.753.594,1.411.286,2.032-.219a7.3,7.3,0,0,0,1.482-1.789q.454-.707.877-1.434a.453.453,0,0,0,.045-.346q-.71-1.744-1.452-3.476a2.561,2.561,0,0,0-.377-.592.692.692,0,0,0-1.158-.042,4.723,4.723,0,0,0-.517.85,2.936,2.936,0,0,0-.149.387c-.277-.088-.4-.281-.312-.52a3.762,3.762,0,0,1,.5-1.063,5.89,5.89,0,0,1,1.124-1.081.991.991,0,0,1,1.385.1,4.092,4.092,0,0,1,.82,1.033c.419.808.765,1.654,1.14,2.485.054.12.1.245.166.413.266-.407.478-.785.742-1.123.571-.733,1.149-1.463,1.765-2.157a4.1,4.1,0,0,1,.925-.7,1.889,1.889,0,0,1,1.913-.022,2.05,2.05,0,0,1-.131.171c-.255.269-.515.534-.769.8s-.442.519-.9.416a1.251,1.251,0,0,0-.975.4,8.26,8.26,0,0,0-1.734,2.1c-.123.189-.216.4-.352.578a.646.646,0,0,0-.063.726c.473,1.084.916,2.181,1.4,3.258a3.738,3.738,0,0,0,.617.885.816.816,0,0,0,1.265.078,2.253,2.253,0,0,0,.4-.475,5.367,5.367,0,0,0,.281-.55c.219.1.367.251.309.493a1.681,1.681,0,0,1-.256.588,4.266,4.266,0,0,1-1.51,1.294,1.242,1.242,0,0,1-1.61-.235,5.655,5.655,0,0,1-1.2-1.854c-.285-.634-.526-1.288-.786-1.933l-.135-.333-.212.366a12.157,12.157,0,0,1-2.562,3.339,2.884,2.884,0,0,1-2.25.821,6.9,6.9,0,0,1-1.008-.276Z" transform="translate(-566 -318.251)" fill="#53baff" stroke="#53baff" stroke-width="1"/>
        </g>
      </g>
    </g>
  </g>
</svg>
