<svg xmlns="http://www.w3.org/2000/svg" width="31.494" height="26.959" viewBox="0 0 31.494 26.959">
  <g id="society" transform="translate(-640.247 -2567.396)">
    <g id="그룹_2702" data-name="그룹 2702" transform="translate(641.245 2568.396)">
      <g id="mypage5" transform="translate(3.849)">
        <path id="패스_1005" data-name="패스 1005" d="M32.858,16.381a5.151,5.151,0,0,1-5.36-5.019A5.255,5.255,0,0,1,38,11.313,5.157,5.157,0,0,1,32.858,16.381Z" transform="translate(-27.497 -6.293)" fill="none" stroke="#80cbfd" stroke-miterlimit="10" stroke-width="2"/>
      </g>
      <g id="mypage5-2" data-name="mypage5" transform="translate(0 13.652)">
        <path id="패스_1004" data-name="패스 1004" d="M11.7,67.675a9.3,9.3,0,0,1,16.639-4.731,9.058,9.058,0,0,1,1.852,4.731" transform="translate(-11.7 -59.292)" fill="none" stroke="#80cbfd" stroke-miterlimit="10" stroke-width="2"/>
      </g>
      <g id="mypage5-3" data-name="mypage5" transform="translate(7.795 16.024)">
        <path id="패스_1004-2" data-name="패스 1004" d="M11.7,69.132a10.914,10.914,0,0,1,19.531-5.553A10.632,10.632,0,0,1,33.4,69.132" transform="translate(-11.7 -59.292)" fill="#fff" stroke="#80cbfd" stroke-miterlimit="10" stroke-width="2"/>
      </g>
      <g id="mypage5-4" data-name="mypage5" transform="translate(7.795 0.904)">
        <path id="패스_1004-3" data-name="패스 1004" d="M11.7,69.132a10.914,10.914,0,0,1,19.531-5.553A10.632,10.632,0,0,1,33.4,69.132" transform="translate(-11.7 -44.172)" fill="none"/>
        <path id="패스_1005-2" data-name="패스 1005" d="M33.789,18.134A6.046,6.046,0,0,1,27.5,12.243a6.168,6.168,0,0,1,12.325-.057A6.053,6.053,0,0,1,33.789,18.134Z" transform="translate(-22.979 -6.293)" fill="#fff" stroke="#80cbfd" stroke-miterlimit="10" stroke-width="2"/>
      </g>
    </g>
  </g>
</svg>
