<?xml version="1.0" standalone="no"?>
<!DOCTYPE svg PUBLIC "-//W3C//DTD SVG 20010904//EN"
 "http://www.w3.org/TR/2001/REC-SVG-20010904/DTD/svg10.dtd">
<svg version="1.0" xmlns="http://www.w3.org/2000/svg"
 width="1280.000000pt" height="720.000000pt" viewBox="0 0 1280.000000 720.000000"
 preserveAspectRatio="xMidYMid meet">

<g transform="translate(0.000000,720.000000) scale(0.100000,-0.100000)"
fill="#000000" stroke="none">
<path d="M10244 5531 c-50 -15 -111 -39 -136 -54 -131 -76 -194 -228 -205
-493 l-6 -141 -24 5 c-20 4 -26 -3 -44 -43 -17 -38 -20 -58 -15 -98 9 -67 20
-84 63 -105 35 -16 37 -21 49 -87 29 -169 97 -265 236 -330 179 -84 336 -96
478 -36 110 47 162 89 225 184 42 64 60 103 79 176 14 51 27 94 28 95 86 36
118 79 118 157 0 54 -16 79 -61 94 l-34 12 -7 130 c-8 146 -31 234 -95 356
-53 100 -105 149 -178 170 -169 46 -335 49 -471 8z m495 -421 c107 -12 150
-32 175 -84 20 -42 20 -60 0 -146 -20 -88 -44 -110 -118 -110 -80 1 -195 25
-266 56 -56 24 -79 28 -160 28 -91 1 -97 0 -148 -33 -44 -28 -63 -34 -115 -35
-72 -1 -106 16 -137 67 -25 41 -25 78 0 126 37 74 110 117 220 131 95 11 440
11 549 0z"/>
<path d="M10078 4965 c-23 -51 20 -106 57 -75 18 15 20 71 3 88 -20 20 -48 14
-60 -13z"/>
<path d="M10582 4978 c-7 -7 -12 -26 -12 -43 0 -35 15 -55 42 -55 35 0 51 66
22 94 -19 19 -36 20 -52 4z"/>
<path d="M7465 5526 c-70 -15 -100 -28 -175 -75 -112 -71 -188 -174 -222 -305
-7 -27 -25 -61 -39 -76 -35 -34 -61 -176 -43 -225 9 -23 57 -45 101 -45 l38 0
0 -107 0 -108 70 -3 c86 -4 174 12 243 44 109 51 213 49 329 -6 57 -28 70 -30
176 -30 63 0 141 3 174 6 l61 7 7 118 7 119 32 0 c60 0 68 30 40 166 -17 85
-30 106 -75 124 -22 10 -32 23 -43 59 -39 133 -123 227 -271 301 l-88 45 -131
2 c-77 1 -156 -3 -191 -11z m420 -708 c39 -34 37 -83 -4 -120 -17 -15 -40 -28
-52 -28 -34 0 -75 27 -88 58 -34 81 75 149 144 90z m-506 -9 c31 -11 61 -52
61 -84 0 -9 -13 -30 -29 -46 -60 -59 -161 -26 -161 54 0 22 8 40 23 54 37 34
58 38 106 22z"/>
<path d="M7782 4768 c-16 -16 -15 -33 2 -47 22 -18 48 -2 44 28 -3 28 -27 38
-46 19z"/>
<path d="M7290 4746 c-27 -33 18 -72 48 -42 13 13 14 20 6 34 -15 23 -38 26
-54 8z"/>
<path d="M3619 5219 c-16 -17 -32 -42 -35 -55 -7 -29 -5 -29 -46 -5 -44 25
-111 38 -238 46 l-105 6 33 -31 c19 -17 31 -34 28 -37 -6 -6 -132 12 -162 24
-13 5 -8 -5 15 -32 l33 -38 -39 -16 c-91 -37 -138 -82 -188 -181 -51 -101 -69
-290 -39 -405 16 -64 42 -116 61 -122 17 -6 80 54 109 102 19 32 34 46 62 54
l37 10 -37 -5 -38 -5 0 41 0 40 40 -26 c22 -15 40 -30 40 -34 0 -12 147 -33
167 -25 10 5 27 7 38 7 14 -1 12 2 -7 9 -23 9 -28 17 -28 45 0 39 24 104 38
104 5 0 45 -44 89 -98 81 -98 136 -145 186 -156 30 -7 33 -1 17 54 -7 23 -6
36 1 41 7 4 5 8 -5 12 -12 5 -16 21 -15 69 1 104 11 111 43 29 15 -39 33 -74
39 -78 7 -4 2 -10 -13 -14 l-25 -7 25 -1 c18 -1 31 -12 48 -41 13 -22 27 -38
31 -35 5 2 19 38 32 80 12 41 26 75 30 75 11 0 27 -24 77 -116 44 -81 90 -129
107 -113 13 14 37 259 32 339 -7 113 -29 179 -80 242 -41 50 -67 67 -199 128
-57 26 -70 37 -87 74 -12 24 -19 51 -15 60 11 28 -26 19 -57 -15z"/>
<path d="M2229 4828 c-28 -53 13 -183 112 -354 86 -150 131 -209 159 -209 24
0 25 3 24 52 -3 124 -128 424 -210 506 -32 33 -69 35 -85 5z"/>
<path d="M3830 4520 c8 -5 20 -10 25 -10 6 0 3 5 -5 10 -8 5 -19 10 -25 10 -5
0 -3 -5 5 -10z"/>
<path d="M3221 4426 c-19 -22 -10 -80 13 -84 22 -5 36 14 36 49 0 24 -16 49
-31 49 -4 0 -12 -6 -18 -14z"/>
<path d="M3707 4434 c-13 -13 -7 -71 8 -84 24 -20 47 6 43 49 -2 27 -8 37 -23
39 -12 2 -24 0 -28 -4z"/>
<path d="M7771 4280 c-24 -22 -58 -44 -75 -49 -22 -7 -25 -9 -10 -10 22 -1 85
41 118 78 29 32 16 25 -33 -19z"/>
<path d="M2532 4221 c-8 -5 -12 -23 -10 -47 3 -36 5 -39 38 -42 24 -3 38 2 47
14 18 24 16 37 -7 62 -22 23 -46 28 -68 13z"/>
<path d="M7553 4223 c9 -2 23 -2 30 0 6 3 -1 5 -18 5 -16 0 -22 -2 -12 -5z"/>
<path d="M10560 4030 c-19 -5 -99 -20 -178 -34 -142 -25 -168 -34 -181 -68 -3
-9 -35 -32 -71 -50 -68 -35 -98 -68 -155 -169 -45 -81 -53 -109 -64 -226 -8
-79 -33 -195 -96 -433 -112 -424 -162 -602 -186 -653 -10 -23 -19 -48 -19 -55
0 -25 247 -172 290 -172 11 0 23 -6 26 -13 2 -7 3 -66 2 -131 l-3 -118 -240
298 c-132 164 -248 306 -257 316 -22 22 -80 24 -135 4 -59 -21 -148 -81 -175
-118 -21 -30 -23 -43 -22 -143 0 -89 5 -121 23 -167 12 -32 26 -60 31 -63 14
-9 120 43 120 58 0 16 -31 47 -47 47 -14 0 -36 83 -36 137 0 50 31 91 95 124
75 38 60 52 369 -348 l283 -368 13 -190 c13 -195 74 -599 97 -645 7 -14 9 -36
5 -50 -4 -14 -7 -44 -8 -68 -1 -60 -28 -82 -136 -116 -102 -32 -172 -65 -197
-93 -11 -12 -18 -39 -20 -77 -3 -52 0 -60 22 -77 49 -37 339 -44 528 -13 l42
7 0 -37 c0 -55 24 -92 67 -107 51 -16 188 -6 293 24 90 25 260 85 272 96 11
10 26 123 39 281 6 80 17 156 24 170 22 44 65 232 75 330 16 157 69 918 82
1173 9 179 15 237 24 237 7 0 16 16 20 35 7 42 5 75 -47 644 l-40 435 -37 70
c-57 108 -125 170 -267 241 -66 33 -124 66 -128 73 -9 13 -44 14 -97 2z m-70
-1860 c52 -11 112 -20 133 -20 30 0 37 -4 37 -19 0 -39 -41 -216 -55 -238 -30
-45 -137 -51 -200 -9 -28 18 -44 68 -37 114 4 29 2 32 -22 32 -37 0 -34 33 10
103 19 31 36 57 37 57 1 0 45 -9 97 -20z m24 -832 c17 -124 47 -598 39 -611
-3 -5 -8 -52 -12 -104 l-6 -95 -49 -19 c-28 -10 -51 -17 -52 -16 -1 1 -4 68
-8 149 -6 127 -5 148 8 155 13 7 18 46 26 208 13 260 25 375 40 375 4 0 10
-19 14 -42z"/>
<path d="M7581 4007 c-89 -9 -95 -11 -130 -47 -20 -20 -51 -45 -68 -54 -80
-41 -136 -115 -163 -216 -7 -25 -27 -77 -46 -115 -21 -45 -42 -114 -57 -190
l-24 -120 -34 1 c-19 0 -120 4 -225 8 -152 6 -193 4 -201 -6 -20 -25 -39 -172
-35 -266 2 -40 5 -44 45 -62 49 -22 187 -47 305 -57 45 -3 82 -6 82 -7 0 -1
-13 -77 -30 -171 -22 -133 -26 -173 -17 -184 22 -26 91 -50 157 -52 36 -1 68
-7 72 -13 4 -6 8 -65 8 -131 1 -290 36 -736 86 -1100 31 -224 71 -455 84 -476
12 -23 -17 -78 -56 -104 -16 -11 -80 -33 -142 -49 -61 -16 -118 -36 -125 -45
-22 -24 -40 -89 -33 -116 12 -49 47 -60 190 -59 72 0 159 3 194 7 l62 8 0 -29
c0 -70 73 -78 315 -37 196 33 253 60 268 126 4 14 11 99 17 188 6 90 15 172
21 183 6 11 17 95 24 186 8 92 16 190 20 217 13 118 37 604 42 893 l6 314 24
9 c20 7 23 14 18 46 -3 21 -12 112 -20 203 -37 402 -90 821 -126 990 -24 112
-61 179 -135 250 -35 33 -63 51 -90 56 -21 4 -45 13 -52 21 -15 15 -87 15
-231 0z m109 -2809 c11 -79 29 -199 40 -268 10 -69 19 -133 19 -142 1 -9 8
-24 17 -33 20 -19 13 -65 -16 -113 -19 -30 -86 -71 -117 -72 -16 0 -18 185 -3
195 6 4 10 136 11 358 1 389 3 391 49 75z"/>
</g>
</svg>
