<svg xmlns="http://www.w3.org/2000/svg" width="30.169" height="30.169" viewBox="0 0 30.169 30.169">
  <g id="main_search" transform="translate(-4879 -1899)">
    <g id="main_search-2" data-name="main_search" transform="translate(4879 1899)">
      <g id="그룹_2754" data-name="그룹 2754" transform="translate(17.677 11.196)">
        <g id="그룹_2753" data-name="그룹 2753">
          <path id="패스_5257" data-name="패스 5257" d="M300.589,190a.589.589,0,1,0,.589.589A.589.589,0,0,0,300.589,190Z" transform="translate(-300 -190)"/>
        </g>
      </g>
      <g id="그룹_2756" data-name="그룹 2756">
        <g id="그룹_2755" data-name="그룹 2755">
          <path id="패스_5258" data-name="패스 5258" d="M29.478,26.146,21.613,18.28a11.679,11.679,0,0,0,1.956-6.5A11.785,11.785,0,1,0,11.785,23.569a11.68,11.68,0,0,0,6.5-1.956l2.174,2.174h0l5.69,5.69a2.357,2.357,0,1,0,3.333-3.333ZM18,20.372h0A10.617,10.617,0,1,1,20.372,18,10.658,10.658,0,0,1,18,20.372Zm1.236.534a11.824,11.824,0,0,0,1.666-1.666l1.672,1.672a14.3,14.3,0,0,1-1.666,1.666Z"/>
        </g>
      </g>
      <g id="그룹_2758" data-name="그룹 2758" transform="translate(2.357 2.357)">
        <g id="그룹_2757" data-name="그룹 2757">
          <path id="패스_5259" data-name="패스 5259" d="M49.428,40a9.428,9.428,0,1,0,9.428,9.428A9.438,9.438,0,0,0,49.428,40Zm0,17.677a8.249,8.249,0,1,1,8.249-8.249A8.259,8.259,0,0,1,49.428,57.677Z" transform="translate(-40 -40)"/>
        </g>
      </g>
      <g id="그룹_2760" data-name="그룹 2760" transform="translate(11.196 4.714)">
        <g id="그룹_2759" data-name="그룹 2759">
          <path id="패스_5260" data-name="패스 5260" d="M197.193,84.541a7.082,7.082,0,0,0-6.6-4.541.589.589,0,0,0,0,1.178,5.933,5.933,0,0,1,5.5,3.786.589.589,0,1,0,1.1-.423Z" transform="translate(-190 -80)"/>
        </g>
      </g>
    </g>
  </g>
</svg>
