<svg xmlns="http://www.w3.org/2000/svg" width="32.515" height="23.987" viewBox="0 0 32.515 23.987">
  <g id="Language" transform="translate(-702.443 -2570.906)">
    <g id="그룹_2703" data-name="그룹 2703" transform="translate(703.441 2571.903)">
      <g id="그룹_2479" data-name="그룹 2479" transform="translate(0 0)">
        <path id="패스_4309" data-name="패스 4309" d="M76.424,447.417c0-.777-.245-1.032-1.031-1.033q-4.211-.007-8.422.007a6.586,6.586,0,0,0-3.949,1.321c-.652.477-1.246,1.033-1.855,1.544a.391.391,0,0,1-.083-.038c-.176-.171-.35-.342-.526-.513a7.416,7.416,0,0,0-5.312-2.321q-4.119,0-8.238,0c-.811,0-1.075.266-1.076,1.067q-.006,4.278,0,8.556a2.359,2.359,0,0,0,0,.49c-.006,4.652.183,8.944,0,10.514a1.376,1.376,0,0,0,.245,1.111c.194.194.533.245,1.109.245H71.321c1.352,0,2.7.007,4.057,0,.771-.006,1.046-.284,1.046-1.028Q76.426,457.376,76.424,447.417Z" transform="translate(-45.908 -446.38)" fill="none" stroke="#80cbfd" stroke-miterlimit="10" stroke-width="2"/>
        <path id="패스_4310" data-name="패스 4310" d="M61.52,526.159s.214-3.573-14.222-5.141" transform="translate(-46.977 -503.802)" fill="none" stroke="#80cbfd" stroke-miterlimit="10" stroke-width="2"/>
        <path id="패스_4311" data-name="패스 4311" d="M114.289,526.159s-.214-3.573,14.222-5.141" transform="translate(-98.517 -503.802)" fill="none" stroke="#80cbfd" stroke-miterlimit="10" stroke-width="2"/>
        <path id="패스_4312" data-name="패스 4312" d="M112.158,459.141" transform="translate(-96.877 -456.198)" fill="none" stroke="#80cbfd" stroke-miterlimit="10" stroke-width="2"/>
        <line id="선_242" data-name="선 242" y2="18.655" transform="translate(15.281 2.943)" fill="none" stroke="#80cbfd" stroke-miterlimit="10" stroke-width="2"/>
      </g>
      <g id="그룹_2480" data-name="그룹 2480" transform="translate(0 0)">
        <path id="패스_4309-2" data-name="패스 4309" d="M76.424,447.417c0-.777-.245-1.032-1.031-1.033q-4.211-.007-8.422.007a6.586,6.586,0,0,0-3.949,1.321c-.652.477-1.246,1.033-1.855,1.544a.391.391,0,0,1-.083-.038c-.176-.171-.35-.342-.526-.513a7.416,7.416,0,0,0-5.312-2.321q-4.119,0-8.238,0c-.811,0-1.075.266-1.076,1.067q-.006,4.278,0,8.556a2.359,2.359,0,0,0,0,.49c-.006,4.652.183,8.944,0,10.514a1.376,1.376,0,0,0,.245,1.111c.194.194.533.245,1.109.245H71.321c1.352,0,2.7.007,4.057,0,.771-.006,1.046-.284,1.046-1.028Q76.426,457.376,76.424,447.417Z" transform="translate(-45.908 -446.38)" fill="none" stroke="#80cbfd" stroke-miterlimit="10" stroke-width="2"/>
        <path id="패스_4310-2" data-name="패스 4310" d="M61.52,526.159s.214-3.573-14.222-5.141" transform="translate(-46.977 -503.802)" fill="none" stroke="#80cbfd" stroke-miterlimit="10" stroke-width="2"/>
        <path id="패스_4311-2" data-name="패스 4311" d="M114.289,526.159s-.214-3.573,14.222-5.141" transform="translate(-98.517 -503.802)" fill="none" stroke="#80cbfd" stroke-miterlimit="10" stroke-width="2"/>
        <path id="패스_4312-2" data-name="패스 4312" d="M112.158,459.141" transform="translate(-96.877 -456.198)" fill="none" stroke="#80cbfd" stroke-miterlimit="10" stroke-width="2"/>
        <line id="선_242-2" data-name="선 242" y2="18.655" transform="translate(15.281 2.943)" fill="none" stroke="#80cbfd" stroke-miterlimit="10" stroke-width="2"/>
      </g>
    </g>
  </g>
</svg>
