<svg xmlns="http://www.w3.org/2000/svg" width="138" height="138.122" viewBox="0 0 138 138.122">
  <g id="man_icon" transform="translate(-233 -952)">
    <g id="그룹_2782" data-name="그룹 2782" transform="translate(115 76)">
      <circle id="타원_621" data-name="타원 621" cx="69" cy="69" r="69" transform="translate(118 876)" fill="#5ebefe"/>
      <path id="패스_5269" data-name="패스 5269" d="M191.3,193.543c-1.145-1.343-1.145-11.1-1.145-11.1a17.911,17.911,0,0,0,3.91-5.451c1.145-2.883,1.9-10.7,1.9-10.7a2.053,2.053,0,0,0,.592.079c.829,0,2.33-.553,3.041-4.187.869-4.463,2.528-6.794,2.093-10.072-.316-2.212-1.264-2.567-1.817-2.567a1.4,1.4,0,0,0-.474.079s2.251-3.318,2.251-14.614c0-11.612-8.966-23.067-25.516-23.107-16.589.04-25.516,11.494-25.516,23.107,0,11.257,2.251,14.614,2.251,14.614a1.4,1.4,0,0,0-.474-.079c-.592,0-1.54.355-1.817,2.567-.434,3.278,1.185,5.648,2.093,10.072.711,3.634,2.212,4.187,3.041,4.187a2.053,2.053,0,0,0,.592-.079s.75,7.86,1.9,10.7a17.911,17.911,0,0,0,3.91,5.451s0,9.756-1.145,11.1-4.621,2.291-6.833,3.16c-3.16,1.224-17.144,6.108-23.14,9.842s-.7,4.82-.842,5.093c-1.067,2.111,13.5,9.842,20.427,12.534,9,3.5,21.788,4.927,29.764,4.6,21.607-.884,27.316-6.614,27.316-6.614a109.017,109.017,0,0,0,15.1-11.377c1.609-1.488-2.74-4.237-2.74-4.237S192.4,194.925,191.3,193.543Z" transform="translate(11.076 785.305)" fill="#fff"/>
    </g>
  </g>
</svg>
