<svg xmlns="http://www.w3.org/2000/svg" width="25.000" height="25.000" viewBox="0 0 39.649 20.256">
  <g id="math" transform="translate(1 1)">
    <path id="패스_4213" data-name="패스 4213" d="M499,316.515h4.344l3.982,3.982,7.361-17.5h21.962" transform="translate(-499 -303)" fill="none" stroke="#000" stroke-linecap="round" stroke-miterlimit="10" stroke-width="2"/>
    <g id="Opar2a" transform="translate(16.17 3.681)">
      <g id="그룹_2342" data-name="그룹 2342">
        <path id="패스_4214" data-name="패스 4214" d="M566,332.477l1.629-1.541c1,.789,1.872.379,2.7-.291a9.687,9.687,0,0,0,1.966-2.374q.6-.939,1.164-1.9a.6.6,0,0,0,.06-.459q-.943-2.314-1.927-4.612a3.4,3.4,0,0,0-.5-.786.919.919,0,0,0-1.537-.056,6.266,6.266,0,0,0-.685,1.127,3.894,3.894,0,0,0-.2.514c-.368-.117-.528-.373-.413-.69a4.993,4.993,0,0,1,.667-1.411,7.815,7.815,0,0,1,1.491-1.435,1.315,1.315,0,0,1,1.837.139,5.429,5.429,0,0,1,1.088,1.37c.556,1.072,1.015,2.195,1.512,3.3.072.16.131.325.221.549.353-.54.635-1.041.984-1.49.758-.972,1.524-1.941,2.342-2.862a5.443,5.443,0,0,1,1.227-.928,2.506,2.506,0,0,1,2.539-.029,2.715,2.715,0,0,1-.174.227c-.338.357-.683.708-1.02,1.066-.323.342-.586.688-1.191.552a1.661,1.661,0,0,0-1.293.535,10.961,10.961,0,0,0-2.3,2.791c-.163.251-.286.531-.467.767a.857.857,0,0,0-.083.963c.628,1.438,1.215,2.894,1.863,4.323a4.958,4.958,0,0,0,.819,1.175,1.082,1.082,0,0,0,1.679.1,2.989,2.989,0,0,0,.527-.63,7.124,7.124,0,0,0,.373-.73c.291.129.486.333.41.655a2.231,2.231,0,0,1-.339.78,5.66,5.66,0,0,1-2,1.718,1.647,1.647,0,0,1-2.136-.311,7.5,7.5,0,0,1-1.6-2.461c-.378-.841-.7-1.709-1.043-2.565l-.179-.443-.282.486a16.132,16.132,0,0,1-3.4,4.431,3.827,3.827,0,0,1-2.986,1.09,9.152,9.152,0,0,1-1.338-.366Z" transform="translate(-566 -318.251)"/>
      </g>
    </g>
  </g>
</svg>
