<svg xmlns="http://www.w3.org/2000/svg" width="65" height="65" viewBox="0 0 65 65">
  <g id="picture" transform="translate(-1161 -302)">
    <circle id="타원_544" data-name="타원 544" cx="32.5" cy="32.5" r="32.5" transform="translate(1161 302)" fill="#fff"/>
    <g id="LuC9J9" transform="translate(1223.87 -4987.485)">
      <g id="그룹_2299" data-name="그룹 2299" transform="translate(-44.87 5308.485)">
        <path id="패스_4204" data-name="패스 4204" d="M-29.966,5334.708q-5.735,0-11.471,0c-2.376,0-3.432-1.055-3.432-3.406q0-7.923,0-15.845c0-2.11,1.068-3.193,3.188-3.216,1.375-.014,2.751-.021,4.126.005a.818.818,0,0,0,.906-.615c1.187-3.027,1.377-3.144,4.647-3.144,1.981,0,3.961-.007,5.942,0a2.319,2.319,0,0,1,2.442,1.7c.79,2.052.79,2.049,3.029,2.053,1.045,0,2.093-.025,3.134.041a2.678,2.678,0,0,1,2.573,2.71q.026,8.458,0,16.916c-.005,1.7-1.271,2.792-3.2,2.8C-22.044,5334.717-26.005,5334.708-29.966,5334.708Zm12.27-19.67c-.325-.015-.622-.038-.918-.039-1.76,0-3.521-.03-5.28.013-.647.016-1.007-.152-1.2-.806a17,17,0,0,0-.9-2.388,1.044,1.044,0,0,0-.742-.531q-3.134-.064-6.27,0a1.04,1.04,0,0,0-.743.528,23.735,23.735,0,0,0-.964,2.54.841.841,0,0,1-.965.653c-1.7-.028-3.41-.011-5.115-.011h-1.239v16.881H-17.7Z" transform="translate(44.87 -5308.484)" fill="#73c6fd"/>
        <path id="패스_4205" data-name="패스 4205" d="M-13.412,5347.146a7.236,7.236,0,0,1-7.247-7.255,7.275,7.275,0,0,1,7.3-7.3,7.325,7.325,0,0,1,7.268,7.272A7.291,7.291,0,0,1-13.412,5347.146Zm0-2.886a4.417,4.417,0,0,0,4.454-4.374,4.472,4.472,0,0,0-4.435-4.411,4.457,4.457,0,0,0-4.4,4.349A4.409,4.409,0,0,0-13.414,5344.26Z" transform="translate(28.382 -5325.755)" fill="#73c6fd"/>
      </g>
    </g>
  </g>
</svg>
