<svg xmlns="http://www.w3.org/2000/svg" width="72" height="72" viewBox="0 0 72 72">
  <g id="share_unchecked" transform="translate(-1019 -635)">
    <g id="타원_618" data-name="타원 618" transform="translate(1019 635)" fill="#fff" stroke="#e8e8e8" stroke-width="2">
      <circle cx="36" cy="36" r="36" stroke="none"/>
      <circle cx="36" cy="36" r="35" fill="none"/>
    </g>
    <g id="그룹_2775" data-name="그룹 2775" transform="translate(1038.272 654.652)" opacity="0.15">
      <path id="패스_4232" data-name="패스 4232" d="M-119.964,1080.883l-1.433-2.539-22.757,12.847,22.757,12.847,1.433-2.539-18.259-10.307Z" transform="translate(146.696 -1074.345)"/>
      <g id="그룹_2389" data-name="그룹 2389" transform="translate(0 11.338)">
        <ellipse id="타원_556" data-name="타원 556" cx="5" cy="4.5" rx="5" ry="4.5" transform="translate(0.728 1.01)" fill="#fff"/>
        <path id="패스_4233" data-name="패스 4233" d="M-146.493,1112.014a5.513,5.513,0,0,1-5.507-5.507,5.513,5.513,0,0,1,5.507-5.507,5.513,5.513,0,0,1,5.507,5.507A5.513,5.513,0,0,1-146.493,1112.014Zm0-9.071a3.568,3.568,0,0,0-3.563,3.563,3.568,3.568,0,0,0,3.563,3.564,3.568,3.568,0,0,0,3.563-3.564A3.568,3.568,0,0,0-146.493,1102.944Z" transform="translate(152 -1101)"/>
      </g>
      <g id="그룹_2390" data-name="그룹 2390" transform="translate(20.085 0)">
        <circle id="타원_557" data-name="타원 557" cx="5" cy="5" r="5" transform="translate(0.643 0.348)" fill="#fff"/>
        <path id="패스_4234" data-name="패스 4234" d="M-84.493,1077.014A5.513,5.513,0,0,1-90,1071.507,5.513,5.513,0,0,1-84.493,1066a5.513,5.513,0,0,1,5.507,5.507A5.513,5.513,0,0,1-84.493,1077.014Zm0-9.071a3.568,3.568,0,0,0-3.563,3.564,3.568,3.568,0,0,0,3.563,3.563,3.568,3.568,0,0,0,3.563-3.563A3.568,3.568,0,0,0-84.493,1067.944Z" transform="translate(90 -1066)"/>
      </g>
      <g id="그룹_2391" data-name="그룹 2391" transform="translate(20.085 22.677)">
        <ellipse id="타원_558" data-name="타원 558" cx="5" cy="4.5" rx="5" ry="4.5" transform="translate(0.643 0.671)" fill="#fff"/>
        <path id="패스_4235" data-name="패스 4235" d="M-84.493,1147.014A5.513,5.513,0,0,1-90,1141.507,5.513,5.513,0,0,1-84.493,1136a5.513,5.513,0,0,1,5.507,5.507A5.513,5.513,0,0,1-84.493,1147.014Zm0-9.07a3.568,3.568,0,0,0-3.563,3.563,3.568,3.568,0,0,0,3.563,3.563,3.568,3.568,0,0,0,3.563-3.563A3.568,3.568,0,0,0-84.493,1137.944Z" transform="translate(90 -1136)"/>
      </g>
    </g>
  </g>
</svg>
