<svg xmlns="http://www.w3.org/2000/svg" width="27.174" height="29.438" viewBox="0 0 27.174 29.438">
  <g id="share_content_icon" transform="translate(0 0.007)">
    <path id="패스_4232" data-name="패스 4232" d="M-123.017,1080.562l-1.252-2.219-19.884,11.225,19.884,11.225,1.252-2.219-15.954-9.006Z" transform="translate(146.375 -1074.857)"/>
    <g id="그룹_2389" data-name="그룹 2389" transform="translate(0 9.9)">
      <circle id="타원_556" data-name="타원 556" cx="4" cy="4" r="4" transform="translate(0.728 1.188)" fill="#fff"/>
      <path id="패스_4233" data-name="패스 4233" d="M-147.188,1110.624a4.817,4.817,0,0,1-4.812-4.812,4.817,4.817,0,0,1,4.812-4.812,4.817,4.817,0,0,1,4.812,4.812A4.817,4.817,0,0,1-147.188,1110.624Zm0-7.926a3.117,3.117,0,0,0-3.114,3.114,3.117,3.117,0,0,0,3.114,3.114,3.117,3.117,0,0,0,3.114-3.114A3.117,3.117,0,0,0-147.188,1102.7Z" transform="translate(152 -1101)"/>
    </g>
    <g id="그룹_2390" data-name="그룹 2390" transform="translate(17.55 -0.125)">
      <circle id="타원_557" data-name="타원 557" cx="4.5" cy="4.5" r="4.5" transform="translate(0.178 0.213)" fill="#fff"/>
      <path id="패스_4234" data-name="패스 4234" d="M-85.188,1075.624A4.817,4.817,0,0,1-90,1070.812,4.817,4.817,0,0,1-85.188,1066a4.817,4.817,0,0,1,4.812,4.812A4.817,4.817,0,0,1-85.188,1075.624Zm0-7.926a3.117,3.117,0,0,0-3.114,3.114,3.117,3.117,0,0,0,3.114,3.114,3.117,3.117,0,0,0,3.114-3.114A3.117,3.117,0,0,0-85.188,1067.7Z" transform="translate(90 -1065.882)"/>
    </g>
    <g id="그룹_2391" data-name="그룹 2391" transform="translate(17.55 19.807)">
      <ellipse id="타원_558" data-name="타원 558" cx="4.5" cy="3.5" rx="4.5" ry="3.5" transform="translate(0.178 1.281)" fill="#fff"/>
      <path id="패스_4235" data-name="패스 4235" d="M-85.188,1145.624A4.817,4.817,0,0,1-90,1140.812,4.817,4.817,0,0,1-85.188,1136a4.817,4.817,0,0,1,4.812,4.812A4.817,4.817,0,0,1-85.188,1145.624Zm0-7.926a3.117,3.117,0,0,0-3.114,3.114,3.117,3.117,0,0,0,3.114,3.114,3.117,3.117,0,0,0,3.114-3.114A3.117,3.117,0,0,0-85.188,1137.7Z" transform="translate(90 -1136)"/>
    </g>
  </g>
</svg>
