<svg xmlns="http://www.w3.org/2000/svg" width="25.000" height="25.000" viewBox="0 0 35.453 30.431">
  <g id="social" transform="translate(7716.998 -3016)">
    <g id="mypage5" transform="translate(-7716 3017)">
      <path id="패스_1004" data-name="패스 1004" d="M11.7,68.8a10.546,10.546,0,0,1,18.873-5.366,10.274,10.274,0,0,1,2.1,5.366" transform="translate(-11.7 -43.808)" fill="#e8e8e8" stroke="#000" stroke-miterlimit="10" stroke-width="2"/>
      <path id="패스_1005" data-name="패스 1005" d="M33.577,17.735A5.842,5.842,0,0,1,27.5,12.042a5.96,5.96,0,0,1,11.91-.055A5.849,5.849,0,0,1,33.577,17.735Z" transform="translate(-23.132 -6.293)" fill="#e8e8e8" stroke="#000" stroke-miterlimit="10" stroke-width="2"/>
    </g>
    <g id="mypage5-2" data-name="mypage5" transform="translate(-7716 3017)">
      <path id="패스_1004-2" data-name="패스 1004" d="M11.7,68.8a10.546,10.546,0,0,1,18.873-5.366,10.274,10.274,0,0,1,2.1,5.366" transform="translate(-11.7 -43.808)" fill="rgba(0,0,0,0)" stroke="#000" stroke-miterlimit="10" stroke-width="2"/>
      <path id="패스_1005-2" data-name="패스 1005" d="M33.577,17.735A5.842,5.842,0,0,1,27.5,12.042a5.96,5.96,0,0,1,11.91-.055A5.849,5.849,0,0,1,33.577,17.735Z" transform="translate(-23.132 -6.293)" fill="rgba(0,0,0,0)" stroke="#000" stroke-miterlimit="10" stroke-width="2"/>
    </g>
    <g id="mypage5-3" data-name="mypage5" transform="translate(-7707.159 3017)">
      <path id="패스_1004-3" data-name="패스 1004" d="M11.7,70.452c.357-6.1,5.773-11.06,12.2-11.158a12.368,12.368,0,0,1,9.957,4.859,12.06,12.06,0,0,1,2.466,6.3" transform="translate(-11.7 -41.118)" fill="#e8e8e8" stroke="#000" stroke-miterlimit="10" stroke-width="2"/>
      <path id="패스_1005-3" data-name="패스 1005" d="M34.634,19.723A6.858,6.858,0,0,1,27.5,13.042a7,7,0,0,1,13.98-.065C41.607,16.512,38.461,19.626,34.634,19.723Z" transform="translate(-22.373 -6.293)" fill="#e8e8e8" stroke="#000" stroke-miterlimit="10" stroke-width="2"/>
    </g>
    <g id="mypage5-4" data-name="mypage5" transform="translate(-7707.159 3017)">
      <path id="패스_1004-4" data-name="패스 1004" d="M11.7,70.452c.357-6.1,5.773-11.06,12.2-11.158a12.368,12.368,0,0,1,9.957,4.859,12.06,12.06,0,0,1,2.466,6.3" transform="translate(-11.7 -41.118)" fill="rgba(0,0,0,0)" stroke="#000" stroke-miterlimit="10" stroke-width="2"/>
      <path id="패스_1005-4" data-name="패스 1005" d="M34.634,19.723A6.858,6.858,0,0,1,27.5,13.042a7,7,0,0,1,13.98-.065C41.607,16.512,38.461,19.626,34.634,19.723Z" transform="translate(-22.373 -6.293)" fill="rgba(0,0,0,0)" stroke="#000" stroke-miterlimit="10" stroke-width="2"/>
    </g>
  </g>
</svg>
