<svg xmlns="http://www.w3.org/2000/svg" width="21" height="20.992" viewBox="0 0 21 20.992">
  <g id="speaker" transform="translate(-829.901 102.244)">
    <path id="패스_2049" data-name="패스 2049" d="M843.827-101.419a.821.821,0,0,0-.491-.738.824.824,0,0,0-.881.092,2.907,2.907,0,0,0-.225.194l-.986.888q-2.451,2.206-4.9,4.415a.383.383,0,0,1-.288.112h0l-.794,0c-.91,0-1.851-.009-2.777.021a2.618,2.618,0,0,0-2.562,2.6c-.028,1.462-.027,2.891,0,4.249a2.469,2.469,0,0,0,1.371,2.2,3.017,3.017,0,0,0,1.485.36h.366c.958,0,1.949,0,2.923.007a.439.439,0,0,1,.25.091c.505.442,1.013.9,1.5,1.344l1.628,1.466q1.44,1.295,2.878,2.592a.963.963,0,0,0,.651.279.9.9,0,0,0,.26-.04.856.856,0,0,0,.59-.923V-101.15C843.83-101.24,843.83-101.33,843.827-101.419ZM842.1-99.44V-84.05l-.67-.6q-2.1-1.889-4.2-3.783a1.142,1.142,0,0,0-.807-.316h-.01c-1.315.009-2.61.006-3.7,0a.968.968,0,0,1-1.033-.689,1.815,1.815,0,0,1-.052-.452c0-1.2-.005-2.451,0-3.7a1.014,1.014,0,0,1,1.153-1.146h.282c1.091,0,2.219,0,3.327,0h.013a1.2,1.2,0,0,0,.847-.329q2.035-1.843,4.079-3.676Z" transform="translate(0)" fill="#80cbfd"/>
    <path id="패스_2050" data-name="패스 2050" d="M941.19-35.7c-1.23-.008-2.5-.008-3.871,0a.84.84,0,0,0-.839.74.86.86,0,0,0,.2.684.908.908,0,0,0,.689.3c.447,0,.893,0,1.339,0h1.675c.263,0,.527,0,.79,0a.866.866,0,0,0,.874-.861A.851.851,0,0,0,941.19-35.7Z" transform="translate(-91.141 -56.904)" fill="#80cbfd"/>
    <path id="패스_2051" data-name="패스 2051" d="M937.29-80.182a.918.918,0,0,0,.646-.278c.9-.894,1.71-1.7,2.518-2.526a1.16,1.16,0,0,0,.219-.358c.011-.025.021-.048.03-.064l.029-.052,0-.059a.871.871,0,0,0-.525-.876.842.842,0,0,0-.962.2l-.829.829q-.846.845-1.691,1.692a.861.861,0,0,0-.03,1.242A.84.84,0,0,0,937.29-80.182Z" transform="translate(-91.116 -15.202)" fill="#80cbfd"/>
    <path id="패스_2052" data-name="패스 2052" d="M940.666-1.447a1.508,1.508,0,0,0-.245-.368c-.682-.7-1.384-1.4-2.063-2.072l-.39-.388a.985.985,0,0,0-.688-.309h0a.828.828,0,0,0-.587.251.869.869,0,0,0,.064,1.276q.592.595,1.187,1.188l.427.427.261.262c.211.213.429.433.65.645a.816.816,0,0,0,.572.238.911.911,0,0,0,.353-.074.968.968,0,0,0,.568-.776l.016-.083-.044-.072C940.718-1.348,940.692-1.4,940.666-1.447Z" transform="translate(-91.116 -83.521)" fill="#80cbfd"/>
  </g>
</svg>
