<svg xmlns="http://www.w3.org/2000/svg" width="72" height="72" viewBox="0 0 72 72">
  <g id="study_unchcked" transform="translate(-872 -635)">
    <g id="타원_617" data-name="타원 617" transform="translate(872 635)" fill="#fff" stroke="#e8e8e8" stroke-width="2">
      <circle cx="36" cy="36" r="36" stroke="none"/>
      <circle cx="36" cy="36" r="35" fill="none"/>
    </g>
    <g id="그룹_2772" data-name="그룹 2772" transform="translate(885.952 657.786)" opacity="0.15">
      <g id="그룹_2384" data-name="그룹 2384" transform="translate(0 0)">
        <path id="패스_4229" data-name="패스 4229" d="M49.641,825.338a36.159,36.159,0,0,0-.854-4.424c-.6-2.307-1.26-4.638-1.894-6.892q-.385-1.369-.768-2.739a4.2,4.2,0,0,0-2.631-2.925,7.618,7.618,0,0,0-2.584-.549c-3.556-.033-7.17-.029-10.665-.025q-3.231,0-6.462,0c-2.316-.007-4.71-.016-7.069.021a5.057,5.057,0,0,0-5.2,3.843c-.188.718-.408,1.449-.619,2.155s-.425,1.417-.616,2.138c-.561,2.118-1.1,4.2-1.583,6.332-.062.275-.129.56-.2.849a16.438,16.438,0,0,0-.61,3.793,4.848,4.848,0,0,0,.265,1.735,5.321,5.321,0,0,0,4.919,3.838h.056a5.292,5.292,0,0,0,5.147-3.835c.189-.736.4-1.528.629-2.325a3.222,3.222,0,0,1,3.109-2.333c4.365-.006,9.054-.01,13.77,0a3.094,3.094,0,0,1,2.493,1.219,5.747,5.747,0,0,1,.969,2.456c.061.266.123.531.192.792a5.293,5.293,0,0,0,5.143,4.034,5.22,5.22,0,0,0,4.771-3.107A7.267,7.267,0,0,0,49.641,825.338Z" transform="translate(-6.931 -806.814)" fill="#fff"/>
        <path id="패스_4230" data-name="패스 4230" d="M42.042,830.912a6.255,6.255,0,0,1-6.07-4.747c-.072-.272-.136-.547-.2-.823A5.023,5.023,0,0,0,35,823.281a2.134,2.134,0,0,0-1.756-.87c-4.668-.012-9.374-.008-13.766,0a2.27,2.27,0,0,0-2.189,1.644c-.23.786-.434,1.566-.62,2.293A6.272,6.272,0,0,1,10.59,830.9h-.07A6.287,6.287,0,0,1,4.7,826.41a5.9,5.9,0,0,1-.312-2.018,17.06,17.06,0,0,1,.635-4.034c.068-.288.135-.569.2-.84.484-2.155,1.029-4.241,1.592-6.367.195-.735.413-1.463.624-2.166s.427-1.424.611-2.125a6.031,6.031,0,0,1,6.108-4.559c2.327-.037,4.685-.03,6.966-.022h.121q3.229.011,6.458,0c3.492,0,7.1-.008,10.675.025a8.564,8.564,0,0,1,2.914.611,5.128,5.128,0,0,1,3.216,3.566q.365,1.311.735,2.62l.033.116c.638,2.267,1.293,4.6,1.9,6.909a37.15,37.15,0,0,1,.877,4.543h0l-.951.125.951-.124a8.164,8.164,0,0,1-.363,4.566A6.209,6.209,0,0,1,42.042,830.912ZM26.435,820.484c2.253,0,4.537,0,6.812.008a4.053,4.053,0,0,1,3.23,1.568,6.551,6.551,0,0,1,1.164,2.85c.059.257.118.512.185.763a4.334,4.334,0,0,0,4.216,3.322,4.287,4.287,0,0,0,3.9-2.541,6.411,6.411,0,0,0,.211-3.53l.951-.126-.951.125a35.177,35.177,0,0,0-.831-4.306c-.6-2.294-1.254-4.617-1.886-6.863l-.036-.128q-.37-1.313-.736-2.626a3.236,3.236,0,0,0-2.046-2.285,6.672,6.672,0,0,0-2.253-.487c-3.564-.033-7.169-.029-10.655-.025q-3.233,0-6.466,0h-.121c-2.272-.008-4.621-.015-6.929.022a4.105,4.105,0,0,0-4.283,3.127c-.192.733-.414,1.47-.627,2.183-.209.694-.422,1.406-.609,2.111-.558,2.108-1.1,4.175-1.574,6.3-.062.278-.131.567-.2.86a15.873,15.873,0,0,0-.585,3.549,3.921,3.921,0,0,0,.181,1.366l.036.08.021.085a4.345,4.345,0,0,0,4,3.106h.046a4.331,4.331,0,0,0,4.217-3.114c.19-.743.4-1.543.638-2.357a4.174,4.174,0,0,1,4.028-3.023C21.727,820.486,24.064,820.484,26.435,820.484Z" transform="translate(-4.39 -804.272)"/>
      </g>
      <g id="그룹_2385" data-name="그룹 2385" transform="translate(10.178 4.813)">
        <path id="패스_4231" data-name="패스 4231" d="M41.521,824.886h3.036v-3.053h2.561v3.053H50.17v2.561H47.118v3.036H44.557v-3.036H41.521Z" transform="translate(-41.521 -821.833)"/>
      </g>
      <g id="그룹_2386" data-name="그룹 2386" transform="translate(27.58 4.211)">
        <circle id="타원_552" data-name="타원 552" cx="1.443" cy="1.443" r="1.443" transform="translate(0 2.712) rotate(-70.014)"/>
        <circle id="타원_553" data-name="타원 553" cx="1.443" cy="1.443" r="1.443" transform="translate(0 8.485) rotate(-70.014)"/>
      </g>
      <g id="그룹_2387" data-name="그룹 2387" transform="translate(24.696 7.099)">
        <circle id="타원_554" data-name="타원 554" cx="1.443" cy="1.443" r="1.443" transform="translate(0 2.715) rotate(-70.147)"/>
        <circle id="타원_555" data-name="타원 555" cx="1.443" cy="1.443" r="1.443" transform="translate(5.772 2.715) rotate(-70.147)"/>
      </g>
    </g>
  </g>
</svg>
