<svg xmlns="http://www.w3.org/2000/svg" width="27.569" height="23.518" viewBox="0 0 27.569 23.518">
  <g id="tab_society_white" transform="translate(0.998 1)">
    <g id="mypage5">
      <path id="패스_1004" data-name="패스 1004" d="M11.7,66.56a8.061,8.061,0,0,1,14.426-4.1,7.853,7.853,0,0,1,1.606,4.1" transform="translate(-11.7 -47.457)" fill="none" stroke="#fff" stroke-miterlimit="10" stroke-width="2"/>
      <path id="패스_1005" data-name="패스 1005" d="M32.144,15.039A4.466,4.466,0,0,1,27.5,10.688a4.555,4.555,0,0,1,9.1-.042A4.471,4.471,0,0,1,32.144,15.039Z" transform="translate(-24.16 -6.293)" fill="none" stroke="#fff" stroke-miterlimit="10" stroke-width="2"/>
    </g>
    <g id="mypage5-2" data-name="mypage5">
      <path id="패스_1004-2" data-name="패스 1004" d="M11.7,66.56a8.061,8.061,0,0,1,14.426-4.1,7.853,7.853,0,0,1,1.606,4.1" transform="translate(-11.7 -47.457)" fill="none" stroke="#fff" stroke-miterlimit="10" stroke-width="2"/>
      <path id="패스_1005-2" data-name="패스 1005" d="M32.144,15.039A4.466,4.466,0,0,1,27.5,10.688a4.555,4.555,0,0,1,9.1-.042A4.471,4.471,0,0,1,32.144,15.039Z" transform="translate(-24.16 -6.293)" fill="none" stroke="#fff" stroke-miterlimit="10" stroke-width="2"/>
    </g>
    <g id="mypage5-3" data-name="mypage5" transform="translate(6.758)">
      <path id="패스_1004-3" data-name="패스 1004" d="M11.7,67.823a9.462,9.462,0,0,1,16.932-4.814,9.218,9.218,0,0,1,1.885,4.814" transform="translate(-11.7 -45.4)" fill="none" stroke="#fff" stroke-miterlimit="10" stroke-width="2"/>
      <path id="패스_1005-3" data-name="패스 1005" d="M32.952,16.558A5.242,5.242,0,0,1,27.5,11.451a5.347,5.347,0,0,1,10.686-.05A5.248,5.248,0,0,1,32.952,16.558Z" transform="translate(-23.58 -6.293)" fill="none" stroke="#fff" stroke-miterlimit="10" stroke-width="2"/>
    </g>
    <g id="mypage5-4" data-name="mypage5" transform="translate(6.758)">
      <path id="패스_1004-4" data-name="패스 1004" d="M11.7,67.823a9.462,9.462,0,0,1,16.932-4.814,9.218,9.218,0,0,1,1.885,4.814" transform="translate(-11.7 -45.4)" fill="#fff" stroke="#fff" stroke-miterlimit="10" stroke-width="2"/>
      <path id="패스_1005-4" data-name="패스 1005" d="M32.952,16.558A5.242,5.242,0,0,1,27.5,11.451a5.347,5.347,0,0,1,10.686-.05A5.248,5.248,0,0,1,32.952,16.558Z" transform="translate(-23.58 -6.293)" fill="#fff" stroke="#fff" stroke-miterlimit="10" stroke-width="2"/>
    </g>
  </g>
</svg>
