<svg xmlns="http://www.w3.org/2000/svg" width="33.989" height="17.626" viewBox="0 0 33.989 17.626">
  <g id="tab_math_white" transform="translate(1 1)">
    <path id="패스_4213" data-name="패스 4213" d="M499,314.483h3.691l3.383,3.383L512.329,303h18.661" transform="translate(-499 -303)" fill="rgba(0,0,0,0)" stroke="#fff" stroke-linecap="round" stroke-miterlimit="10" stroke-width="2"/>
    <g id="Opar2a" transform="translate(13.739 3.127)">
      <g id="그룹_2342" data-name="그룹 2342">
        <path id="패스_4214" data-name="패스 4214" d="M566,330.338l1.384-1.309c.849.67,1.59.322,2.291-.247a8.23,8.23,0,0,0,1.671-2.017q.512-.8.989-1.617a.511.511,0,0,0,.051-.39q-.8-1.966-1.637-3.918a2.891,2.891,0,0,0-.425-.668.781.781,0,0,0-1.306-.047,5.322,5.322,0,0,0-.582.958,3.314,3.314,0,0,0-.169.437c-.313-.1-.449-.317-.351-.586a4.24,4.24,0,0,1,.567-1.2,6.638,6.638,0,0,1,1.267-1.219,1.117,1.117,0,0,1,1.561.118,4.612,4.612,0,0,1,.924,1.164c.472.911.863,1.865,1.285,2.8.061.136.112.276.188.466.3-.459.539-.885.836-1.266.644-.826,1.3-1.649,1.99-2.432a4.624,4.624,0,0,1,1.043-.788,2.129,2.129,0,0,1,2.157-.025,2.3,2.3,0,0,1-.148.192c-.287.3-.58.6-.867.906s-.5.585-1.012.469a1.411,1.411,0,0,0-1.1.454,9.315,9.315,0,0,0-1.955,2.372c-.139.213-.243.451-.4.652a.728.728,0,0,0-.071.819c.534,1.222,1.033,2.459,1.583,3.673a4.208,4.208,0,0,0,.7,1,.92.92,0,0,0,1.426.088,2.54,2.54,0,0,0,.447-.535,6.048,6.048,0,0,0,.317-.62c.247.109.413.283.348.556a1.9,1.9,0,0,1-.288.663,4.809,4.809,0,0,1-1.7,1.459,1.4,1.4,0,0,1-1.815-.264,6.376,6.376,0,0,1-1.356-2.091c-.321-.715-.593-1.452-.887-2.179l-.152-.376-.24.413a13.7,13.7,0,0,1-2.888,3.764,3.251,3.251,0,0,1-2.537.926,7.779,7.779,0,0,1-1.137-.311Z" transform="translate(-566 -318.251)" fill="#fff" stroke="#fff" stroke-width="1"/>
      </g>
    </g>
  </g>
</svg>
