<svg xmlns="http://www.w3.org/2000/svg" width="28.174" height="20.86" viewBox="0 0 28.174 20.86">
  <g id="tab_language_white" transform="translate(0.998 0.998)">
    <g id="그룹_2479" data-name="그룹 2479" transform="translate(0 0)">
      <path id="패스_4309" data-name="패스 4309" d="M72.083,447.27c0-.667-.21-.885-.884-.886q-3.612-.006-7.224.006a5.65,5.65,0,0,0-3.387,1.133c-.559.409-1.069.886-1.591,1.324a.33.33,0,0,1-.072-.033c-.151-.146-.3-.294-.451-.44a6.362,6.362,0,0,0-4.556-1.991q-3.533,0-7.066,0c-.7,0-.922.228-.923.915q-.005,3.67,0,7.339a2.023,2.023,0,0,0,0,.421c-.005,3.99.157,7.672,0,9.018a1.18,1.18,0,0,0,.21.953c.167.167.457.21.951.21H67.706c1.16,0,2.32.006,3.48,0,.662-.006.9-.244.9-.882Q72.085,455.812,72.083,447.27Z" transform="translate(-45.908 -446.38)" fill="none" stroke="#fff" stroke-miterlimit="10" stroke-width="2"/>
      <path id="패스_4310" data-name="패스 4310" d="M59.5,525.427s.184-3.065-12.2-4.409" transform="translate(-47.023 -506.251)" fill="none" stroke="#fff" stroke-miterlimit="10" stroke-width="2"/>
      <path id="패스_4311" data-name="패스 4311" d="M114.289,525.427s-.184-3.065,12.2-4.409" transform="translate(-100.76 -506.251)" fill="none" stroke="#fff" stroke-miterlimit="10" stroke-width="2"/>
      <path id="패스_4312" data-name="패스 4312" d="M112.158,459.141" transform="translate(-99.05 -456.616)" fill="none" stroke="#fff" stroke-miterlimit="10" stroke-width="2"/>
      <line id="선_242" data-name="선 242" y2="16.002" transform="translate(13.107 2.525)" fill="none" stroke="#fff" stroke-miterlimit="10" stroke-width="2"/>
    </g>
    <g id="그룹_2480" data-name="그룹 2480" transform="translate(0 0)">
      <path id="패스_4309-2" data-name="패스 4309" d="M72.083,447.27c0-.667-.21-.885-.884-.886q-3.612-.006-7.224.006a5.65,5.65,0,0,0-3.387,1.133c-.559.409-1.069.886-1.591,1.324a.33.33,0,0,1-.072-.033c-.151-.146-.3-.294-.451-.44a6.362,6.362,0,0,0-4.556-1.991q-3.533,0-7.066,0c-.7,0-.922.228-.923.915q-.005,3.67,0,7.339a2.023,2.023,0,0,0,0,.421c-.005,3.99.157,7.672,0,9.018a1.18,1.18,0,0,0,.21.953c.167.167.457.21.951.21H67.706c1.16,0,2.32.006,3.48,0,.662-.006.9-.244.9-.882Q72.085,455.812,72.083,447.27Z" transform="translate(-45.908 -446.38)" fill="none" stroke="#fff" stroke-miterlimit="10" stroke-width="2"/>
      <path id="패스_4310-2" data-name="패스 4310" d="M59.5,525.427s.184-3.065-12.2-4.409" transform="translate(-47.023 -506.251)" fill="none" stroke="#fff" stroke-miterlimit="10" stroke-width="2"/>
      <path id="패스_4311-2" data-name="패스 4311" d="M114.289,525.427s-.184-3.065,12.2-4.409" transform="translate(-100.76 -506.251)" fill="none" stroke="#fff" stroke-miterlimit="10" stroke-width="2"/>
      <path id="패스_4312-2" data-name="패스 4312" d="M112.158,459.141" transform="translate(-99.05 -456.616)" fill="none" stroke="#fff" stroke-miterlimit="10" stroke-width="2"/>
      <line id="선_242-2" data-name="선 242" y2="16.002" transform="translate(13.107 2.525)" fill="none" stroke="#fff" stroke-miterlimit="10" stroke-width="2"/>
    </g>
  </g>
</svg>
