<svg xmlns="http://www.w3.org/2000/svg" width="138" height="138.52" viewBox="0 0 138 138.52">
  <g id="woman_icon" transform="translate(-435 -952)">
    <g id="그룹_2781" data-name="그룹 2781" transform="translate(133 75.765)">
      <circle id="타원_620" data-name="타원 620" cx="69" cy="69" r="69" transform="translate(302 876.235)" fill="#5ebefe"/>
      <path id="패스_5268" data-name="패스 5268" d="M119.936,266.344s6.566-3.61,9.552-6.706c1.183-1.22-19.22-11.61-20.521-12.212-6.961-3.22-7.218-1.9-8.406-3.328s-.475-9.331-.475-9.331,14.2-.475,19.851-5.468c-9.212-13.789-4.279-29.9-6.181-44.932C111.912,169.39,102.938,160,85.762,160h-.594c-16.641,0-25.2,9.39-27.1,24.427s3.566,32.926-5.884,44.991c5.29,4.7,18.365,4.933,19.851,4.933h.119l.059-.059s.594,8.44-.594,9.866-4.7,2.734-7.073,3.269c-5.23,1.129-22.926,9.392-22.3,12.212.305,1.4,5.763,5.488,13.185,8.674,2.194.942,4.876,2.493,7.218,3.281a58.947,58.947,0,0,0,10.5,2.518c2.655.379,9.626,2.662,20.605.763,2.142-.371,4.4-.254,6.812-.763,1.66-.349,3.462-1.292,5.393-1.862A77.921,77.921,0,0,0,119.936,266.344Z" transform="translate(285.493 739.134)" fill="#fff"/>
    </g>
  </g>
</svg>
